<svg aria-hidden="true" style="position: absolute; width: 0; height: 0; overflow: hidden;" version="1.1" xmlns="http://www.w3.org/2000/svg" xmlns:xlink="http://www.w3.org/1999/xlink">
<defs>
<symbol id="icon-01d" viewBox="0 0 32 32">
<path fill="#ffd347" style="fill: var(--color1, #ffd347)" d="M25.051 16c0 4.999-4.053 9.052-9.052 9.052s-9.052-4.053-9.052-9.052c0-4.999 4.053-9.052 9.052-9.052s9.052 4.053 9.052 9.052z"></path>
<path fill="#ffd347" style="fill: var(--color1, #ffd347)" d="M16 3.553c-0.267 0-0.484-0.216-0.484-0.484v-2.586c0-0.267 0.216-0.484 0.484-0.484s0.484 0.216 0.484 0.484v2.586c0 0.267-0.216 0.483-0.484 0.483z"></path>
<path fill="#ffd347" style="fill: var(--color1, #ffd347)" d="M9.535 5.285c-0.167 0-0.33-0.087-0.419-0.242l-1.293-2.24c-0.133-0.231-0.054-0.527 0.177-0.661s0.527-0.054 0.661 0.177l1.293 2.239c0.133 0.231 0.054 0.527-0.177 0.661-0.076 0.044-0.159 0.065-0.241 0.065z"></path>
<path fill="#ffd347" style="fill: var(--color1, #ffd347)" d="M4.801 10.018c-0.082 0-0.165-0.021-0.241-0.065l-2.24-1.293c-0.231-0.133-0.31-0.429-0.177-0.661s0.429-0.31 0.661-0.177l2.239 1.293c0.231 0.133 0.311 0.429 0.177 0.661-0.090 0.155-0.252 0.242-0.419 0.242z"></path>
<path fill="#ffd347" style="fill: var(--color1, #ffd347)" d="M3.070 16.484h-2.586c-0.267 0-0.484-0.216-0.484-0.484s0.216-0.484 0.484-0.484h2.586c0.267 0 0.484 0.216 0.484 0.484s-0.217 0.484-0.484 0.484z"></path>
<path fill="#ffd347" style="fill: var(--color1, #ffd347)" d="M2.563 24.242c-0.167 0-0.33-0.087-0.419-0.242-0.134-0.231-0.054-0.527 0.177-0.661l2.24-1.293c0.231-0.133 0.527-0.054 0.661 0.177s0.054 0.527-0.177 0.661l-2.24 1.293c-0.076 0.044-0.159 0.065-0.241 0.065z"></path>
<path fill="#ffd347" style="fill: var(--color1, #ffd347)" d="M8.241 29.921c-0.082 0-0.165-0.021-0.241-0.065-0.231-0.134-0.311-0.429-0.177-0.661l1.293-2.239c0.133-0.231 0.429-0.31 0.661-0.177s0.31 0.429 0.177 0.661l-1.293 2.239c-0.090 0.155-0.252 0.242-0.419 0.242z"></path>
<path fill="#ffd347" style="fill: var(--color1, #ffd347)" d="M16 32c-0.267 0-0.484-0.216-0.484-0.484v-2.586c0-0.267 0.216-0.484 0.484-0.484s0.484 0.216 0.484 0.484v2.586c0 0.267-0.216 0.484-0.484 0.484z"></path>
<path fill="#ffd347" style="fill: var(--color1, #ffd347)" d="M23.759 29.921c-0.167 0-0.33-0.087-0.419-0.242l-1.293-2.239c-0.134-0.231-0.054-0.527 0.177-0.661s0.527-0.054 0.661 0.177l1.293 2.239c0.134 0.231 0.054 0.527-0.177 0.661-0.076 0.044-0.159 0.065-0.241 0.065z"></path>
<path fill="#ffd347" style="fill: var(--color1, #ffd347)" d="M29.437 24.242c-0.082 0-0.165-0.021-0.241-0.065l-2.239-1.293c-0.231-0.134-0.311-0.429-0.177-0.661s0.429-0.31 0.661-0.177l2.239 1.293c0.231 0.134 0.311 0.429 0.177 0.661-0.090 0.155-0.252 0.242-0.419 0.242z"></path>
<path fill="#ffd347" style="fill: var(--color1, #ffd347)" d="M31.516 16.484h-2.586c-0.267 0-0.484-0.216-0.484-0.484s0.216-0.484 0.484-0.484h2.586c0.267 0 0.484 0.216 0.484 0.484s-0.216 0.484-0.484 0.484z"></path>
<path fill="#ffd347" style="fill: var(--color1, #ffd347)" d="M27.199 10.018c-0.167 0-0.33-0.087-0.419-0.242-0.134-0.231-0.054-0.527 0.177-0.661l2.239-1.293c0.231-0.133 0.527-0.054 0.661 0.177s0.054 0.527-0.177 0.661l-2.239 1.293c-0.076 0.044-0.159 0.065-0.241 0.065z"></path>
<path fill="#ffd347" style="fill: var(--color1, #ffd347)" d="M22.465 5.285c-0.082 0-0.165-0.021-0.241-0.065-0.231-0.133-0.311-0.429-0.177-0.661l1.293-2.24c0.134-0.231 0.429-0.31 0.661-0.177s0.311 0.429 0.177 0.661l-1.293 2.24c-0.090 0.155-0.252 0.242-0.419 0.242z"></path>
<path fill="#ffbe31" style="fill: var(--color2, #ffbe31)" d="M16 6.949c-0.328 0-0.651 0.018-0.97 0.052 4.543 0.484 8.081 4.328 8.081 8.999s-3.539 8.516-8.081 8.999c0.319 0.034 0.642 0.052 0.97 0.052 4.999 0 9.051-4.052 9.051-9.051s-4.052-9.051-9.051-9.051z"></path>
</symbol>
<symbol id="icon-01n" viewBox="0 0 32 32">
<path fill="#27536b" style="fill: var(--color3, #27536b)" d="M32 16c0 8.837-7.163 16-16 16s-16-7.163-16-16c0-8.837 7.163-16 16-16s16 7.163 16 16z"></path>
<path fill="#fcd57e" style="fill: var(--color4, #fcd57e)" d="M24.461 18.301c-3.023 3.023-7.924 3.023-10.946 0s-3.023-7.924 0-10.946c0.63-0.63 1.342-1.129 2.102-1.496-2.487 0.066-4.955 1.048-6.853 2.947-3.934 3.934-3.934 10.313 0 14.247s10.313 3.934 14.247 0c1.898-1.898 2.88-4.366 2.947-6.853-0.367 0.76-0.866 1.472-1.496 2.102z"></path>
<path fill="#fff" style="fill: var(--color5, #fff)" d="M22.238 9.598l0.357 3.228 0.357-3.228 3.228-0.357-3.228-0.357-0.357-3.228-0.357 3.228-3.228 0.357z"></path>
<path fill="#fff" style="fill: var(--color5, #fff)" d="M7.023 25.665l0.256 2.312 0.256-2.312 2.312-0.256-2.312-0.256-0.256-2.312-0.256 2.312-2.312 0.256z"></path>
<path fill="#fff" style="fill: var(--color5, #fff)" d="M15.065 15.837l0.458-0.458 0.458 0.458-0.458 0.458-0.458-0.458z"></path>
<path fill="#fff" style="fill: var(--color5, #fff)" d="M26.049 12.41l0.458-0.458 0.458 0.458-0.458 0.458-0.458-0.458z"></path>
<path fill="#fff" style="fill: var(--color5, #fff)" d="M27.992 18.101l0.458-0.458 0.458 0.458-0.458 0.458-0.458-0.458z"></path>
<path fill="#fff" style="fill: var(--color5, #fff)" d="M4.62 8.107l0.458-0.458 0.458 0.458-0.458 0.458-0.458-0.458z"></path>
<path fill="#fff" style="fill: var(--color5, #fff)" d="M21.511 26.664l0.458-0.458 0.458 0.458-0.458 0.458-0.458-0.458z"></path>
<path fill="#fff" style="fill: var(--color5, #fff)" d="M7.215 6.442l0.458-0.458 0.458 0.458-0.458 0.458-0.458-0.458z"></path>
</symbol>
<symbol id="icon-02d" viewBox="0 0 32 32">
<path fill="#ffd900" style="fill: var(--color6, #ffd900)" d="M25.999 18.346c0.833-1.192 1.322-2.643 1.322-4.209 0-4.062-3.293-7.356-7.356-7.356-3.346 0-6.171 2.234-7.062 5.293v8.386h13.325z"></path>
<path fill="#fb0" style="fill: var(--color7, #fb0)" d="M27.321 14.137c0-4.062-3.293-7.356-7.356-7.356-0.244 0-0.485 0.013-0.723 0.037 3.717 0.369 6.62 3.505 6.62 7.319 0 1.565-0.489 3.016-1.322 4.209l0.229 2.114h1.459l-0.229-2.114c0.833-1.192 1.322-2.644 1.322-4.209z"></path>
<path fill="#ffd900" style="fill: var(--color6, #ffd900)" d="M31.524 14.613h-2.102c-0.263 0-0.476-0.213-0.476-0.476s0.213-0.476 0.476-0.476h2.102c0.263 0 0.476 0.213 0.476 0.476s-0.213 0.476-0.476 0.476z"></path>
<path fill="#ffd900" style="fill: var(--color6, #ffd900)" d="M26.653 7.925c-0.122 0-0.244-0.046-0.336-0.139-0.186-0.186-0.186-0.487 0-0.673l1.486-1.486c0.186-0.186 0.487-0.186 0.673-0s0.186 0.487 0 0.673l-1.486 1.486c-0.093 0.093-0.215 0.139-0.336 0.139z"></path>
<path fill="#ffd900" style="fill: var(--color6, #ffd900)" d="M19.965 5.154c-0.263 0-0.476-0.213-0.476-0.476v-2.102c0-0.263 0.213-0.476 0.476-0.476s0.476 0.213 0.476 0.476v2.102c0 0.263-0.213 0.476-0.476 0.476z"></path>
<path fill="#ffd900" style="fill: var(--color6, #ffd900)" d="M13.277 7.923c-0.122 0-0.243-0.046-0.336-0.139l-1.486-1.486c-0.186-0.186-0.186-0.487 0-0.673s0.487-0.186 0.673 0l1.486 1.486c0.186 0.186 0.186 0.487 0 0.673-0.093 0.093-0.215 0.139-0.336 0.139z"></path>
<path fill="#ffa400" style="fill: var(--color8, #ffa400)" d="M16.346 5.874c-0.187 0-0.364-0.111-0.44-0.294l-0.402-0.971c-0.101-0.243 0.015-0.521 0.257-0.622s0.521 0.015 0.622 0.257l0.402 0.971c0.101 0.243-0.015 0.521-0.257 0.622-0.060 0.025-0.121 0.036-0.182 0.036z"></path>
<path fill="#ffa400" style="fill: var(--color8, #ffa400)" d="M11.226 10.993c-0.061 0-0.122-0.012-0.182-0.036l-0.971-0.402c-0.243-0.101-0.358-0.379-0.257-0.622s0.379-0.358 0.622-0.257l0.971 0.402c0.243 0.101 0.358 0.379 0.257 0.622-0.076 0.183-0.253 0.294-0.44 0.294z"></path>
<path fill="#ffa400" style="fill: var(--color8, #ffa400)" d="M29.675 18.635c-0.061 0-0.122-0.012-0.182-0.036l-0.971-0.402c-0.243-0.101-0.358-0.379-0.257-0.622s0.379-0.358 0.622-0.257l0.971 0.402c0.243 0.101 0.358 0.379 0.257 0.622-0.076 0.183-0.253 0.294-0.44 0.294z"></path>
<path fill="#ffa400" style="fill: var(--color8, #ffa400)" d="M28.705 10.993c-0.187 0-0.364-0.111-0.44-0.294-0.101-0.243 0.015-0.521 0.257-0.622l0.971-0.402c0.243-0.101 0.521 0.015 0.622 0.257s-0.015 0.521-0.257 0.622l-0.971 0.402c-0.059 0.025-0.121 0.036-0.182 0.036z"></path>
<path fill="#ffa400" style="fill: var(--color8, #ffa400)" d="M23.585 5.874c-0.061 0-0.122-0.012-0.182-0.036-0.243-0.101-0.358-0.379-0.257-0.622l0.402-0.971c0.101-0.243 0.379-0.358 0.622-0.257s0.358 0.379 0.257 0.622l-0.402 0.971c-0.076 0.183-0.253 0.294-0.44 0.294z"></path>
<path fill="#c8effe" style="fill: var(--color9, #c8effe)" d="M25.672 18.34h-4.409c-0.184 0-0.34-0.132-0.374-0.313-0.644-3.436-3.677-6.030-7.309-5.992-4.043 0.043-7.276 3.385-7.276 7.429v0.597c0 0.21-0.17 0.381-0.381 0.381h-1.136c-2.607 0-4.769 2.085-4.788 4.693-0.019 2.628 2.105 4.765 4.729 4.765h21.016c3.206 0 5.803-2.611 5.779-5.823-0.024-3.187-2.665-5.736-5.852-5.736z"></path>
<path fill="#99e2fc" style="fill: var(--color10, #99e2fc)" d="M25.672 18.34h-1.459c3.187 0 5.828 2.549 5.852 5.736 0.024 3.212-2.573 5.823-5.779 5.823h1.459c3.207 0 5.803-2.611 5.779-5.823-0.024-3.187-2.665-5.736-5.852-5.736z"></path>
<path fill="#99e2fc" style="fill: var(--color10, #99e2fc)" d="M19.431 18.028c0.034 0.181 0.19 0.313 0.374 0.313h1.459c-0.184 0-0.34-0.132-0.374-0.313-0.644-3.436-3.677-6.030-7.309-5.992-0.218 0.002-0.434 0.015-0.646 0.036 3.264 0.323 5.901 2.779 6.496 5.956z"></path>
<path fill="#99e2fc" style="fill: var(--color10, #99e2fc)" d="M9.457 20.442c0.263 0 0.476-0.213 0.476-0.476s-0.213-0.476-0.476-0.476h-3.152v0.571c0 0.21-0.17 0.381-0.381 0.381h-1.136c-0 0-0.001 0-0.001 0z"></path>
</symbol>
<symbol id="icon-02n" viewBox="0 0 32 32">
<path fill="#ffd92e" style="fill: var(--color11, #ffd92e)" d="M14.118 16.572c-3.924-2.023-6.613-6.118-6.613-10.828 0-2.501 0.713-3.998 1.141-5.713-1.184 0.891-4.527 2.21-6.841 6.317-1.179 2.093-1.803 4.476-1.803 6.892 0 3.858 1.578 7.5 4.31 10.129l9.238 3.918c0.229 0.008 0.387 0.009 0.568 0.008l0.941-5.646z"></path>
<path fill="#fcbe00" style="fill: var(--color12, #fcbe00)" d="M26.168 16.046c-3.659 2.312-8.264 2.479-12.051 0.527v10.722c6.501-0.027 11.816-4.43 13.458-10.195l0.675-2.369z"></path>
<path fill="#d5e7fa" style="fill: var(--color13, #d5e7fa)" d="M16.962 4.26c-1.139 0.649-1.903 1.866-1.903 3.272 0 2.076 1.689 3.764 3.764 3.764h4.705l0.941-4.705-0.941-6.198c-2.928-1.274-6.264 0.692-6.566 3.868z"></path>
<path fill="#c0dbf2" style="fill: var(--color14, #c0dbf2)" d="M30.089 4.256c-0.301-2.499-2.945-4.004-5.242-2.999-0.39-0.364-0.836-0.654-1.318-0.864v10.904h4.705c2.080 0 3.764-1.684 3.764-3.764 0-1.37-0.746-2.616-1.909-3.276z"></path>
<path fill="#d5e7fa" style="fill: var(--color13, #d5e7fa)" d="M10.73 32h-7.529c-1.756 0-3.2-1.419-3.2-3.2 0-1.132 0.599-2.165 1.541-2.737 0.304-2.022 2.423-3.252 4.332-2.502 2.394-2.085 6.145-0.622 6.52 2.507 0.924 0.564 1.534 1.574 1.534 2.732 0 1.764-1.435 3.2-3.2 3.2z"></path>
</symbol>
<symbol id="icon-03d" viewBox="0 0 32 32">
<path fill="#d8ecfe" style="fill: var(--color15, #d8ecfe)" d="M27.742 17.061c0.265-3.709-3.15-6.568-6.735-5.698-0.727-3.275-3.648-5.723-7.141-5.723-4.14 0-7.479 3.44-7.309 7.618-0.002 0-0.004-0-0.007-0-3.618 0-6.551 2.933-6.551 6.551 0 3.533 2.797 6.412 6.297 6.546v0.005h21.045c2.573 0 4.658-2.086 4.658-4.658 0-2.438-1.873-4.437-4.258-4.64z"></path>
<path fill="#c4e2ff" style="fill: var(--color16, #c4e2ff)" d="M27.742 17.061c0.265-3.709-3.15-6.568-6.735-5.698-0.727-3.275-3.648-5.723-7.141-5.723-1.156 0-2.249 0.268-3.221 0.746 0.244-0.025 0.491-0.037 0.741-0.037 3.493 0 6.414 2.449 7.141 5.723 3.585-0.87 7 1.989 6.735 5.698 2.385 0.203 4.258 2.202 4.258 4.64 0 1.666-0.875 3.126-2.189 3.95h0.011c2.573 0 4.658-2.086 4.658-4.658-0-2.438-1.873-4.437-4.258-4.64z"></path>
</symbol>
<symbol id="icon-03n" viewBox="0 0 32 32">
<path fill="#d8ecfe" style="fill: var(--color15, #d8ecfe)" d="M27.742 17.061c0.265-3.709-3.15-6.568-6.735-5.698-0.727-3.275-3.648-5.723-7.141-5.723-4.14 0-7.479 3.44-7.309 7.618-0.002 0-0.004-0-0.007-0-3.618 0-6.551 2.933-6.551 6.551 0 3.533 2.797 6.412 6.297 6.546v0.005h21.045c2.573 0 4.658-2.086 4.658-4.658 0-2.438-1.873-4.437-4.258-4.64z"></path>
<path fill="#c4e2ff" style="fill: var(--color16, #c4e2ff)" d="M27.742 17.061c0.265-3.709-3.15-6.568-6.735-5.698-0.727-3.275-3.648-5.723-7.141-5.723-1.156 0-2.249 0.268-3.221 0.746 0.244-0.025 0.491-0.037 0.741-0.037 3.493 0 6.414 2.449 7.141 5.723 3.585-0.87 7 1.989 6.735 5.698 2.385 0.203 4.258 2.202 4.258 4.64 0 1.666-0.875 3.126-2.189 3.95h0.011c2.573 0 4.658-2.086 4.658-4.658-0-2.438-1.873-4.437-4.258-4.64z"></path>
</symbol>
<symbol id="icon-04d" viewBox="0 0 32 32">
<path d="M27.183 14.192c-0.42-2.69-2.752-4.754-5.558-4.754-1.056 0-2.070 0.292-2.95 0.837-1.338-2.249-3.748-3.649-6.425-3.649-4.135 0-7.5 3.365-7.5 7.5 0 0.026 0 0.052 0.001 0.078-2.658 0.448-4.751 2.765-4.751 5.547 0 3.102 2.586 5.625 5.688 5.625h20.625c3.102 0 5.688-2.523 5.688-5.625 0-2.806-2.127-5.138-4.817-5.558z"></path>
</symbol>
<symbol id="icon-04n" viewBox="0 0 32 32">
<path d="M27.183 14.192c-0.42-2.69-2.752-4.754-5.558-4.754-1.056 0-2.070 0.292-2.95 0.837-1.338-2.249-3.748-3.649-6.425-3.649-4.135 0-7.5 3.365-7.5 7.5 0 0.026 0 0.052 0.001 0.078-2.658 0.448-4.751 2.765-4.751 5.547 0 3.102 2.586 5.625 5.688 5.625h20.625c3.102 0 5.688-2.523 5.688-5.625 0-2.806-2.127-5.138-4.817-5.558z"></path>
</symbol>
<symbol id="icon-09d" viewBox="0 0 32 32">
<path d="M26.151 19.083h-20.247c-0.001 0-0.001 0-0.002 0-2.767 0-5.009-2.243-5.009-5.009 0-2.391 1.676-4.391 3.917-4.89l0.033-0.006c-0.058-0.343-0.091-0.737-0.091-1.14 0-3.965 3.214-7.178 7.178-7.178 2.851 0 5.314 1.662 6.472 4.070l0.019 0.043c0.51-0.16 1.097-0.253 1.705-0.253h0c2.712 0.015 4.997 1.823 5.733 4.297l0.011 0.043h0.281c2.768 0 5.012 2.244 5.012 5.012s-2.244 5.012-5.012 5.012v0zM11.93 1.73c-3.487 0.004-6.312 2.829-6.317 6.315v0c0.002 0.494 0.060 0.974 0.168 1.434l-0.008-0.043c0.007 0.028 0.010 0.061 0.010 0.094 0 0.221-0.165 0.403-0.379 0.429l-0.002 0c-2.067 0.255-3.652 2-3.652 4.115 0 2.289 1.856 4.144 4.144 4.144 0.003 0 0.007 0 0.010 0h20.246c2.29 0 4.147-1.857 4.147-4.147s-1.857-4.147-4.147-4.147v0h-0.617c-0 0-0 0-0 0-0.206 0-0.378-0.144-0.422-0.336l-0.001-0.003c-0.52-2.305-2.55-4-4.976-4-0.647 0-1.266 0.121-1.836 0.341l0.035-0.012c-0.045 0.017-0.097 0.027-0.151 0.027-0.18 0-0.334-0.11-0.399-0.267l-0.001-0.003c-0.957-2.331-3.209-3.943-5.838-3.943-0.005 0-0.010 0-0.015 0h0.001z"></path>
<path d="M20.378 27.228c-0.001 0-0.002 0-0.003 0-0.068 0-0.133-0.016-0.19-0.044l0.002 0.001c-0.144-0.072-0.242-0.219-0.242-0.388 0-0.069 0.016-0.135 0.045-0.193l-0.001 0.003 2.748-5.607c0.070-0.151 0.22-0.254 0.394-0.254 0.239 0 0.432 0.194 0.432 0.432 0 0.074-0.018 0.143-0.051 0.204l-2.747 5.602c-0.072 0.145-0.218 0.244-0.388 0.244h-0z"></path>
<path d="M18.465 31.135c-0 0-0.001 0-0.001 0-0.239 0-0.432-0.194-0.432-0.432 0-0.069 0.016-0.135 0.045-0.193l-0.001 0.003 0.791-1.614c0.072-0.145 0.219-0.243 0.389-0.243 0.239 0 0.433 0.194 0.433 0.433 0 0.069-0.016 0.135-0.045 0.193l0.001-0.003-0.794 1.614c-0.072 0.144-0.218 0.241-0.387 0.242h-0z"></path>
<path d="M14.998 31.135c-0 0-0.001 0-0.001 0-0.239 0-0.432-0.194-0.432-0.432 0-0.069 0.016-0.135 0.045-0.193l-0.001 0.003 2.75-5.604c0.072-0.145 0.219-0.243 0.389-0.243 0.239 0 0.433 0.194 0.433 0.433 0 0.069-0.016 0.135-0.045 0.193l0.001-0.003-2.751 5.604c-0.072 0.145-0.219 0.242-0.388 0.242 0 0 0 0 0 0v0z"></path>
<path d="M18.871 23.235c-0 0-0.001 0-0.001 0-0.239 0-0.432-0.194-0.432-0.432 0-0.069 0.016-0.135 0.045-0.193l-0.001 0.003 0.791-1.614c0.070-0.151 0.22-0.254 0.394-0.254 0.239 0 0.432 0.194 0.432 0.432 0 0.074-0.018 0.143-0.051 0.204l-0.79 1.612c-0.072 0.144-0.218 0.242-0.387 0.242h-0z"></path>
<path d="M13.449 27.228c-0 0-0.001 0-0.001 0-0.239 0-0.432-0.194-0.432-0.432 0-0.069 0.016-0.135 0.045-0.193l-0.001 0.003 2.75-5.606c0.069-0.154 0.22-0.259 0.396-0.259 0.239 0 0.432 0.194 0.432 0.432 0 0.076-0.020 0.147-0.054 0.209l0.001-0.002-2.748 5.604c-0.072 0.146-0.219 0.244-0.389 0.244 0 0-0 0-0 0v0z"></path>
<path d="M11.533 31.135c-0 0-0.001 0-0.001 0-0.239 0-0.432-0.194-0.432-0.432 0-0.069 0.016-0.135 0.045-0.193l-0.001 0.003 0.791-1.614c0.072-0.145 0.219-0.243 0.389-0.243 0.239 0 0.433 0.194 0.433 0.433 0 0.069-0.016 0.135-0.045 0.193l0.001-0.003-0.791 1.614c-0.072 0.145-0.219 0.242-0.388 0.242-0 0-0.001 0-0.001 0h0z"></path>
<path d="M8.069 31.135c-0 0-0.001 0-0.001 0-0.239 0-0.432-0.194-0.432-0.432 0-0.069 0.016-0.135 0.045-0.193l-0.001 0.003 2.75-5.604c0.072-0.145 0.219-0.243 0.389-0.243 0.239 0 0.433 0.194 0.433 0.433 0 0.069-0.016 0.135-0.045 0.193l0.001-0.003-2.75 5.604c-0.072 0.145-0.219 0.242-0.388 0.242-0 0-0 0-0 0h0z"></path>
<path d="M11.941 23.235c-0 0-0.001 0-0.001 0-0.239 0-0.432-0.194-0.432-0.432 0-0.069 0.016-0.135 0.045-0.193l-0.001 0.003 0.791-1.614c0.072-0.145 0.219-0.243 0.389-0.243 0.239 0 0.433 0.194 0.433 0.433 0 0.069-0.016 0.135-0.045 0.193l0.001-0.003-0.791 1.614c-0.072 0.145-0.219 0.242-0.388 0.242-0 0-0.001 0-0.001 0h0z"></path>
<path d="M6.52 27.228c-0.001 0-0.002 0-0.003 0-0.068 0-0.133-0.016-0.19-0.044l0.002 0.001c-0.144-0.072-0.242-0.219-0.242-0.388 0-0.069 0.016-0.135 0.045-0.193l-0.001 0.003 2.748-5.607c0.070-0.151 0.22-0.254 0.394-0.254 0.239 0 0.432 0.194 0.432 0.432 0 0.074-0.018 0.143-0.051 0.204l-2.747 5.602c-0.072 0.145-0.219 0.244-0.389 0.244h-0z"></path>
<path d="M4.604 31.135c-0 0-0.001 0-0.001 0-0.239 0-0.432-0.194-0.432-0.432 0-0.069 0.016-0.135 0.045-0.193l-0.001 0.003 0.791-1.614c0.072-0.145 0.219-0.243 0.389-0.243 0.239 0 0.433 0.194 0.433 0.433 0 0.069-0.016 0.135-0.045 0.193l0.001-0.003-0.791 1.614c-0.072 0.145-0.219 0.242-0.388 0.242-0 0-0.001 0-0.001 0h0z"></path>
</symbol>
<symbol id="icon-09n" viewBox="0 0 32 32">
<path d="M26.151 19.083h-20.247c-0.001 0-0.001 0-0.002 0-2.767 0-5.009-2.243-5.009-5.009 0-2.391 1.676-4.391 3.917-4.89l0.033-0.006c-0.058-0.343-0.091-0.737-0.091-1.14 0-3.965 3.214-7.178 7.178-7.178 2.851 0 5.314 1.662 6.472 4.070l0.019 0.043c0.51-0.16 1.097-0.253 1.705-0.253h0c2.712 0.015 4.997 1.823 5.733 4.297l0.011 0.043h0.281c2.768 0 5.012 2.244 5.012 5.012s-2.244 5.012-5.012 5.012v0zM11.93 1.73c-3.487 0.004-6.312 2.829-6.317 6.315v0c0.002 0.494 0.060 0.974 0.168 1.434l-0.008-0.043c0.007 0.028 0.010 0.061 0.010 0.094 0 0.221-0.165 0.403-0.379 0.429l-0.002 0c-2.067 0.255-3.652 2-3.652 4.115 0 2.289 1.856 4.144 4.144 4.144 0.003 0 0.007 0 0.010 0h20.246c2.29 0 4.147-1.857 4.147-4.147s-1.857-4.147-4.147-4.147v0h-0.617c-0 0-0 0-0 0-0.206 0-0.378-0.144-0.422-0.336l-0.001-0.003c-0.52-2.305-2.55-4-4.976-4-0.647 0-1.266 0.121-1.836 0.341l0.035-0.012c-0.045 0.017-0.097 0.027-0.151 0.027-0.18 0-0.334-0.11-0.399-0.267l-0.001-0.003c-0.957-2.331-3.209-3.943-5.838-3.943-0.005 0-0.010 0-0.015 0h0.001z"></path>
<path d="M20.378 27.228c-0.001 0-0.002 0-0.003 0-0.068 0-0.133-0.016-0.19-0.044l0.002 0.001c-0.144-0.072-0.242-0.219-0.242-0.388 0-0.069 0.016-0.135 0.045-0.193l-0.001 0.003 2.748-5.607c0.070-0.151 0.22-0.254 0.394-0.254 0.239 0 0.432 0.194 0.432 0.432 0 0.074-0.018 0.143-0.051 0.204l-2.747 5.602c-0.072 0.145-0.218 0.244-0.388 0.244h-0z"></path>
<path d="M18.465 31.135c-0 0-0.001 0-0.001 0-0.239 0-0.432-0.194-0.432-0.432 0-0.069 0.016-0.135 0.045-0.193l-0.001 0.003 0.791-1.614c0.072-0.145 0.219-0.243 0.389-0.243 0.239 0 0.433 0.194 0.433 0.433 0 0.069-0.016 0.135-0.045 0.193l0.001-0.003-0.794 1.614c-0.072 0.144-0.218 0.241-0.387 0.242h-0z"></path>
<path d="M14.998 31.135c-0 0-0.001 0-0.001 0-0.239 0-0.432-0.194-0.432-0.432 0-0.069 0.016-0.135 0.045-0.193l-0.001 0.003 2.75-5.604c0.072-0.145 0.219-0.243 0.389-0.243 0.239 0 0.433 0.194 0.433 0.433 0 0.069-0.016 0.135-0.045 0.193l0.001-0.003-2.751 5.604c-0.072 0.145-0.219 0.242-0.388 0.242 0 0 0 0 0 0v0z"></path>
<path d="M18.871 23.235c-0 0-0.001 0-0.001 0-0.239 0-0.432-0.194-0.432-0.432 0-0.069 0.016-0.135 0.045-0.193l-0.001 0.003 0.791-1.614c0.070-0.151 0.22-0.254 0.394-0.254 0.239 0 0.432 0.194 0.432 0.432 0 0.074-0.018 0.143-0.051 0.204l-0.79 1.612c-0.072 0.144-0.218 0.242-0.387 0.242h-0z"></path>
<path d="M13.449 27.228c-0 0-0.001 0-0.001 0-0.239 0-0.432-0.194-0.432-0.432 0-0.069 0.016-0.135 0.045-0.193l-0.001 0.003 2.75-5.606c0.069-0.154 0.22-0.259 0.396-0.259 0.239 0 0.432 0.194 0.432 0.432 0 0.076-0.020 0.147-0.054 0.209l0.001-0.002-2.748 5.604c-0.072 0.146-0.219 0.244-0.389 0.244 0 0-0 0-0 0v0z"></path>
<path d="M11.533 31.135c-0 0-0.001 0-0.001 0-0.239 0-0.432-0.194-0.432-0.432 0-0.069 0.016-0.135 0.045-0.193l-0.001 0.003 0.791-1.614c0.072-0.145 0.219-0.243 0.389-0.243 0.239 0 0.433 0.194 0.433 0.433 0 0.069-0.016 0.135-0.045 0.193l0.001-0.003-0.791 1.614c-0.072 0.145-0.219 0.242-0.388 0.242-0 0-0.001 0-0.001 0h0z"></path>
<path d="M8.069 31.135c-0 0-0.001 0-0.001 0-0.239 0-0.432-0.194-0.432-0.432 0-0.069 0.016-0.135 0.045-0.193l-0.001 0.003 2.75-5.604c0.072-0.145 0.219-0.243 0.389-0.243 0.239 0 0.433 0.194 0.433 0.433 0 0.069-0.016 0.135-0.045 0.193l0.001-0.003-2.75 5.604c-0.072 0.145-0.219 0.242-0.388 0.242-0 0-0 0-0 0h0z"></path>
<path d="M11.941 23.235c-0 0-0.001 0-0.001 0-0.239 0-0.432-0.194-0.432-0.432 0-0.069 0.016-0.135 0.045-0.193l-0.001 0.003 0.791-1.614c0.072-0.145 0.219-0.243 0.389-0.243 0.239 0 0.433 0.194 0.433 0.433 0 0.069-0.016 0.135-0.045 0.193l0.001-0.003-0.791 1.614c-0.072 0.145-0.219 0.242-0.388 0.242-0 0-0.001 0-0.001 0h0z"></path>
<path d="M6.52 27.228c-0.001 0-0.002 0-0.003 0-0.068 0-0.133-0.016-0.19-0.044l0.002 0.001c-0.144-0.072-0.242-0.219-0.242-0.388 0-0.069 0.016-0.135 0.045-0.193l-0.001 0.003 2.748-5.607c0.070-0.151 0.22-0.254 0.394-0.254 0.239 0 0.432 0.194 0.432 0.432 0 0.074-0.018 0.143-0.051 0.204l-2.747 5.602c-0.072 0.145-0.219 0.244-0.389 0.244h-0z"></path>
<path d="M4.604 31.135c-0 0-0.001 0-0.001 0-0.239 0-0.432-0.194-0.432-0.432 0-0.069 0.016-0.135 0.045-0.193l-0.001 0.003 0.791-1.614c0.072-0.145 0.219-0.243 0.389-0.243 0.239 0 0.433 0.194 0.433 0.433 0 0.069-0.016 0.135-0.045 0.193l0.001-0.003-0.791 1.614c-0.072 0.145-0.219 0.242-0.388 0.242-0 0-0.001 0-0.001 0h0z"></path>
</symbol>
<symbol id="icon-10d" viewBox="0 0 32 32">
<path fill="#ffce69" style="fill: var(--color17, #ffce69)" d="M13.43 8.591c1.195-2.355 3.639-3.969 6.461-3.969 3.999 0 7.24 3.242 7.24 7.24 0 2.536-1.303 4.767-3.277 6.060h-10.425z"></path>
<path fill="#ffbd61" style="fill: var(--color18, #ffbd61)" d="M19.891 4.622c-0.25 0-0.497 0.013-0.741 0.038 3.648 0.373 6.494 3.456 6.494 7.202 0 2.536-1.303 4.767-3.277 6.060h1.487c1.973-1.293 3.277-3.524 3.277-6.060-0-3.999-3.242-7.24-7.24-7.24z"></path>
<path fill="#f9f5f3" style="fill: var(--color19, #f9f5f3)" d="M5.41 12.897c0-2.915 2.412-5.267 5.349-5.169 2.797 0.093 4.995 2.435 4.995 5.234 0 1.107 0.897 2.004 2.004 2.004h2.072c2.274 0 4.169 1.809 4.199 4.082 0.030 2.31-1.834 4.192-4.137 4.192h-14.416c-2.852 0-5.215-2.281-5.236-5.132-0.021-2.874 2.302-5.211 5.172-5.211z"></path>
<path fill="#f9eae0" style="fill: var(--color20, #f9eae0)" d="M14.267 12.962c0 1.107 0.897 2.004 2.004 2.004h1.487c-1.107 0-2.004-0.897-2.004-2.004 0-2.799-2.198-5.14-4.995-5.234-0.313-0.011-0.62 0.009-0.919 0.052 2.521 0.367 4.427 2.576 4.427 5.182z"></path>
<path fill="#f9eae0" style="fill: var(--color20, #f9eae0)" d="M19.829 14.966h-1.487c2.274 0 4.169 1.809 4.199 4.082 0.030 2.31-1.834 4.192-4.137 4.192h1.487c2.303 0 4.167-1.882 4.137-4.192-0.029-2.274-1.925-4.082-4.199-4.082z"></path>
<path fill="#ffbd61" style="fill: var(--color18, #ffbd61)" d="M19.903 3.008c-0.259 0-0.469-0.21-0.469-0.469v-2.071c0-0.259 0.21-0.469 0.469-0.469s0.469 0.21 0.469 0.469v2.071c0 0.259-0.21 0.469-0.469 0.469z"></path>
<path fill="#ffbd61" style="fill: var(--color18, #ffbd61)" d="M13.314 5.738c-0.12 0-0.24-0.046-0.332-0.137l-1.464-1.464c-0.183-0.183-0.183-0.48 0-0.663s0.48-0.183 0.663 0l1.464 1.464c0.183 0.183 0.183 0.48 0 0.663-0.092 0.091-0.211 0.137-0.331 0.137z"></path>
<path fill="#ffbd61" style="fill: var(--color18, #ffbd61)" d="M27.957 20.381c-0.12 0-0.24-0.046-0.331-0.137l-1.464-1.464c-0.183-0.183-0.183-0.48 0-0.663s0.48-0.183 0.663 0l1.464 1.464c0.183 0.183 0.183 0.48 0 0.663-0.091 0.091-0.212 0.137-0.331 0.137z"></path>
<path fill="#ffbd61" style="fill: var(--color18, #ffbd61)" d="M31.293 12.327h-2.071c-0.259 0-0.469-0.21-0.469-0.469s0.21-0.469 0.469-0.469h2.071c0.259 0 0.469 0.21 0.469 0.469s-0.21 0.469-0.469 0.469z"></path>
<path fill="#ffbd61" style="fill: var(--color18, #ffbd61)" d="M26.493 5.738c-0.12 0-0.24-0.046-0.331-0.137-0.183-0.183-0.183-0.48 0-0.663l1.464-1.464c0.183-0.183 0.48-0.183 0.663 0s0.183 0.48 0 0.663l-1.464 1.464c-0.091 0.091-0.212 0.137-0.331 0.137z"></path>
<path fill="#a0c8ff" style="fill: var(--color21, #a0c8ff)" d="M8.513 27.858c-0.070 0-0.142-0.016-0.209-0.050-0.232-0.116-0.325-0.397-0.21-0.629l1.035-2.071c0.116-0.232 0.397-0.326 0.629-0.21s0.325 0.397 0.21 0.629l-1.035 2.071c-0.082 0.164-0.248 0.259-0.42 0.259z"></path>
<path fill="#a0c8ff" style="fill: var(--color21, #a0c8ff)" d="M13.69 27.858c-0.070 0-0.142-0.016-0.209-0.050-0.232-0.116-0.325-0.397-0.21-0.629l1.035-2.071c0.116-0.232 0.397-0.325 0.629-0.21s0.325 0.397 0.21 0.629l-1.035 2.071c-0.082 0.164-0.248 0.259-0.42 0.259z"></path>
<path fill="#a0c8ff" style="fill: var(--color21, #a0c8ff)" d="M15.761 32c-0.070 0-0.142-0.016-0.209-0.050-0.232-0.116-0.325-0.397-0.21-0.629l1.035-2.071c0.116-0.232 0.397-0.326 0.629-0.21s0.325 0.397 0.21 0.629l-1.035 2.071c-0.082 0.164-0.248 0.259-0.42 0.259z"></path>
<path fill="#a0c8ff" style="fill: var(--color21, #a0c8ff)" d="M10.584 32c-0.070 0-0.142-0.016-0.209-0.050-0.232-0.116-0.325-0.397-0.21-0.629l1.035-2.071c0.116-0.232 0.397-0.326 0.629-0.21s0.325 0.397 0.21 0.629l-1.035 2.071c-0.082 0.164-0.248 0.259-0.42 0.259z"></path>
<path fill="#a0c8ff" style="fill: var(--color21, #a0c8ff)" d="M18.867 27.858c-0.070 0-0.142-0.016-0.209-0.050-0.232-0.116-0.325-0.397-0.21-0.629l1.035-2.071c0.116-0.232 0.397-0.326 0.629-0.21s0.325 0.397 0.21 0.629l-1.035 2.071c-0.082 0.164-0.248 0.259-0.42 0.259z"></path>
</symbol>
<symbol id="icon-10n" viewBox="0 0 32 32">
<path fill="#ffce69" style="fill: var(--color17, #ffce69)" d="M13.43 8.591c1.195-2.355 3.639-3.969 6.461-3.969 3.999 0 7.24 3.242 7.24 7.24 0 2.536-1.303 4.767-3.277 6.060h-10.425z"></path>
<path fill="#ffbd61" style="fill: var(--color18, #ffbd61)" d="M19.891 4.622c-0.25 0-0.497 0.013-0.741 0.038 3.648 0.373 6.494 3.456 6.494 7.202 0 2.536-1.303 4.767-3.277 6.060h1.487c1.973-1.293 3.277-3.524 3.277-6.060-0-3.999-3.242-7.24-7.24-7.24z"></path>
<path fill="#f9f5f3" style="fill: var(--color19, #f9f5f3)" d="M5.41 12.897c0-2.915 2.412-5.267 5.349-5.169 2.797 0.093 4.995 2.435 4.995 5.234 0 1.107 0.897 2.004 2.004 2.004h2.072c2.274 0 4.169 1.809 4.199 4.082 0.030 2.31-1.834 4.192-4.137 4.192h-14.416c-2.852 0-5.215-2.281-5.236-5.132-0.021-2.874 2.302-5.211 5.172-5.211z"></path>
<path fill="#f9eae0" style="fill: var(--color20, #f9eae0)" d="M14.267 12.962c0 1.107 0.897 2.004 2.004 2.004h1.487c-1.107 0-2.004-0.897-2.004-2.004 0-2.799-2.198-5.14-4.995-5.234-0.313-0.011-0.62 0.009-0.919 0.052 2.521 0.367 4.427 2.576 4.427 5.182z"></path>
<path fill="#f9eae0" style="fill: var(--color20, #f9eae0)" d="M19.829 14.966h-1.487c2.274 0 4.169 1.809 4.199 4.082 0.030 2.31-1.834 4.192-4.137 4.192h1.487c2.303 0 4.167-1.882 4.137-4.192-0.029-2.274-1.925-4.082-4.199-4.082z"></path>
<path fill="#ffbd61" style="fill: var(--color18, #ffbd61)" d="M19.903 3.008c-0.259 0-0.469-0.21-0.469-0.469v-2.071c0-0.259 0.21-0.469 0.469-0.469s0.469 0.21 0.469 0.469v2.071c0 0.259-0.21 0.469-0.469 0.469z"></path>
<path fill="#ffbd61" style="fill: var(--color18, #ffbd61)" d="M13.314 5.738c-0.12 0-0.24-0.046-0.332-0.137l-1.464-1.464c-0.183-0.183-0.183-0.48 0-0.663s0.48-0.183 0.663 0l1.464 1.464c0.183 0.183 0.183 0.48 0 0.663-0.092 0.091-0.211 0.137-0.331 0.137z"></path>
<path fill="#ffbd61" style="fill: var(--color18, #ffbd61)" d="M27.957 20.381c-0.12 0-0.24-0.046-0.331-0.137l-1.464-1.464c-0.183-0.183-0.183-0.48 0-0.663s0.48-0.183 0.663 0l1.464 1.464c0.183 0.183 0.183 0.48 0 0.663-0.091 0.091-0.212 0.137-0.331 0.137z"></path>
<path fill="#ffbd61" style="fill: var(--color18, #ffbd61)" d="M31.293 12.327h-2.071c-0.259 0-0.469-0.21-0.469-0.469s0.21-0.469 0.469-0.469h2.071c0.259 0 0.469 0.21 0.469 0.469s-0.21 0.469-0.469 0.469z"></path>
<path fill="#ffbd61" style="fill: var(--color18, #ffbd61)" d="M26.493 5.738c-0.12 0-0.24-0.046-0.331-0.137-0.183-0.183-0.183-0.48 0-0.663l1.464-1.464c0.183-0.183 0.48-0.183 0.663 0s0.183 0.48 0 0.663l-1.464 1.464c-0.091 0.091-0.212 0.137-0.331 0.137z"></path>
<path fill="#a0c8ff" style="fill: var(--color21, #a0c8ff)" d="M8.513 27.858c-0.070 0-0.142-0.016-0.209-0.050-0.232-0.116-0.325-0.397-0.21-0.629l1.035-2.071c0.116-0.232 0.397-0.326 0.629-0.21s0.325 0.397 0.21 0.629l-1.035 2.071c-0.082 0.164-0.248 0.259-0.42 0.259z"></path>
<path fill="#a0c8ff" style="fill: var(--color21, #a0c8ff)" d="M13.69 27.858c-0.070 0-0.142-0.016-0.209-0.050-0.232-0.116-0.325-0.397-0.21-0.629l1.035-2.071c0.116-0.232 0.397-0.325 0.629-0.21s0.325 0.397 0.21 0.629l-1.035 2.071c-0.082 0.164-0.248 0.259-0.42 0.259z"></path>
<path fill="#a0c8ff" style="fill: var(--color21, #a0c8ff)" d="M15.761 32c-0.070 0-0.142-0.016-0.209-0.050-0.232-0.116-0.325-0.397-0.21-0.629l1.035-2.071c0.116-0.232 0.397-0.326 0.629-0.21s0.325 0.397 0.21 0.629l-1.035 2.071c-0.082 0.164-0.248 0.259-0.42 0.259z"></path>
<path fill="#a0c8ff" style="fill: var(--color21, #a0c8ff)" d="M10.584 32c-0.070 0-0.142-0.016-0.209-0.050-0.232-0.116-0.325-0.397-0.21-0.629l1.035-2.071c0.116-0.232 0.397-0.326 0.629-0.21s0.325 0.397 0.21 0.629l-1.035 2.071c-0.082 0.164-0.248 0.259-0.42 0.259z"></path>
<path fill="#a0c8ff" style="fill: var(--color21, #a0c8ff)" d="M18.867 27.858c-0.070 0-0.142-0.016-0.209-0.050-0.232-0.116-0.325-0.397-0.21-0.629l1.035-2.071c0.116-0.232 0.397-0.326 0.629-0.21s0.325 0.397 0.21 0.629l-1.035 2.071c-0.082 0.164-0.248 0.259-0.42 0.259z"></path>
</symbol>
<symbol id="icon-11d" viewBox="0 0 32 32">
<path fill="#edebfd" style="fill: var(--color22, #edebfd)" d="M27.488 7.663c-0.173-2.568-2.302-4.616-4.898-4.662-2.563-4.208-8.786-3.934-10.955 0.501-2.204-0.062-4.23 1.347-4.907 3.505-2.631 0.141-4.728 2.327-4.728 4.993 0 3.503 3.527 5.915 6.776 4.675 1.572 2.488 4.914 3.059 7.224 1.325 2.307 1.733 5.65 1.166 7.224-1.325 3.247 1.239 6.776-1.169 6.776-4.675-0-1.81-0.955-3.446-2.512-4.337z"></path>
<path fill="#d2d2fc" style="fill: var(--color23, #d2d2fc)" d="M23.085 16.881c-1.287 1.833-3.574 2.522-5.582 1.889 1.116-0.349 2.081-1.084 2.72-2.096 0.92 0.351 1.922 0.415 2.862 0.206z"></path>
<path fill="#d2d2fc" style="fill: var(--color23, #d2d2fc)" d="M30 12c0 3.385-3.304 5.781-6.5 4.771 2.026-0.639 3.501-2.536 3.501-4.771 0-1.811-0.955-3.446-2.512-4.337-0.172-2.568-2.302-4.616-4.898-4.662-0.867-1.424-2.255-2.427-3.841-2.819 2.635-0.65 5.412 0.471 6.841 2.819 2.596 0.046 4.726 2.094 4.898 4.662 1.557 0.891 2.512 2.526 2.512 4.337z"></path>
<path fill="#f1cc76" style="fill: var(--color24, #f1cc76)" d="M19 23.5h-2v-3c0-0.509-0.675-0.691-0.932-0.252l-3.5 6c-0.194 0.333 0.046 0.752 0.432 0.752h1.947l-0.445 4.45c-0.055 0.544 0.683 0.765 0.939 0.285l4-7.5c0.177-0.332-0.064-0.735-0.441-0.735z"></path>
<path fill="#ebb15d" style="fill: var(--color25, #ebb15d)" d="M17 20.5v3h-2v-1.421l1.068-1.831c0.256-0.44 0.932-0.257 0.932 0.252z"></path>
<path fill="#ebb15d" style="fill: var(--color25, #ebb15d)" d="M19.441 24.235l-4 7.5c-0.256 0.482-0.993 0.258-0.939-0.285l0.21-2.098 2.729-5.117c0.177-0.332-0.064-0.735-0.441-0.735h2c0.378 0 0.619 0.403 0.441 0.735z"></path>
<path fill="#a0e1fd" style="fill: var(--color26, #a0e1fd)" d="M6.5 21c-0.052 0-0.106-0.008-0.158-0.026-0.262-0.087-0.404-0.37-0.316-0.633l0.5-1.5c0.087-0.262 0.37-0.403 0.633-0.316s0.404 0.37 0.316 0.633l-0.5 1.5c-0.070 0.209-0.265 0.342-0.474 0.342z"></path>
<path fill="#a0e1fd" style="fill: var(--color26, #a0e1fd)" d="M3 23c-0.052 0-0.106-0.008-0.158-0.026-0.262-0.087-0.404-0.37-0.316-0.633l0.5-1.5c0.087-0.262 0.37-0.403 0.632-0.316s0.404 0.37 0.316 0.633l-0.5 1.5c-0.070 0.209-0.265 0.342-0.474 0.342z"></path>
<path fill="#a0e1fd" style="fill: var(--color26, #a0e1fd)" d="M5 25.5c-0.052 0-0.106-0.008-0.158-0.026-0.262-0.087-0.404-0.37-0.316-0.633l0.5-1.5c0.087-0.262 0.37-0.403 0.633-0.316s0.404 0.37 0.316 0.633l-0.5 1.5c-0.070 0.209-0.265 0.342-0.474 0.342z"></path>
<path fill="#a0e1fd" style="fill: var(--color26, #a0e1fd)" d="M4 29.5c-0.052 0-0.106-0.008-0.158-0.026-0.262-0.087-0.404-0.37-0.316-0.633l0.5-1.5c0.087-0.262 0.371-0.403 0.633-0.316s0.404 0.37 0.316 0.633l-0.5 1.5c-0.070 0.209-0.265 0.342-0.474 0.342z"></path>
<path fill="#a0e1fd" style="fill: var(--color26, #a0e1fd)" d="M8 28c-0.052 0-0.106-0.008-0.158-0.026-0.262-0.087-0.404-0.37-0.316-0.633l0.5-1.5c0.087-0.262 0.371-0.403 0.633-0.316s0.403 0.37 0.316 0.633l-0.5 1.5c-0.070 0.209-0.265 0.342-0.474 0.342z"></path>
<path fill="#a0e1fd" style="fill: var(--color26, #a0e1fd)" d="M6.5 32c-0.052 0-0.106-0.008-0.158-0.026-0.262-0.087-0.404-0.37-0.316-0.633l0.5-1.5c0.087-0.262 0.37-0.403 0.633-0.316s0.404 0.37 0.316 0.633l-0.5 1.5c-0.070 0.209-0.265 0.342-0.474 0.342z"></path>
<path fill="#a0e1fd" style="fill: var(--color26, #a0e1fd)" d="M10.5 31c-0.052 0-0.106-0.008-0.158-0.026-0.262-0.087-0.403-0.37-0.316-0.633l0.5-1.5c0.087-0.262 0.371-0.403 0.633-0.316s0.403 0.37 0.316 0.633l-0.5 1.5c-0.070 0.209-0.265 0.342-0.474 0.342z"></path>
<path fill="#a0e1fd" style="fill: var(--color26, #a0e1fd)" d="M9 23.5c-0.052 0-0.106-0.008-0.158-0.026-0.262-0.087-0.403-0.37-0.316-0.633l0.5-1.5c0.087-0.262 0.37-0.403 0.633-0.316s0.403 0.37 0.316 0.633l-0.5 1.5c-0.070 0.209-0.265 0.342-0.474 0.342z"></path>
<path fill="#a0e1fd" style="fill: var(--color26, #a0e1fd)" d="M12 23.5c-0.052 0-0.106-0.008-0.158-0.026-0.262-0.087-0.403-0.37-0.316-0.633l0.5-1.5c0.087-0.262 0.371-0.403 0.633-0.316s0.403 0.37 0.316 0.633l-0.5 1.5c-0.070 0.209-0.265 0.342-0.474 0.342z"></path>
<path fill="#a0e1fd" style="fill: var(--color26, #a0e1fd)" d="M22.5 23c-0.052 0-0.106-0.008-0.158-0.026-0.262-0.087-0.404-0.37-0.316-0.633l0.5-1.5c0.087-0.262 0.37-0.403 0.633-0.316s0.404 0.37 0.316 0.633l-0.5 1.5c-0.070 0.209-0.265 0.342-0.474 0.342z"></path>
<path fill="#a0e1fd" style="fill: var(--color26, #a0e1fd)" d="M26.5 21.5c-0.052 0-0.106-0.008-0.158-0.026-0.262-0.087-0.404-0.37-0.316-0.633l0.5-1.5c0.087-0.262 0.37-0.403 0.633-0.316s0.404 0.37 0.316 0.633l-0.5 1.5c-0.070 0.209-0.265 0.342-0.474 0.342z"></path>
<path fill="#a0e1fd" style="fill: var(--color26, #a0e1fd)" d="M25.5 25.5c-0.052 0-0.106-0.008-0.158-0.026-0.262-0.087-0.404-0.37-0.316-0.633l0.5-1.5c0.087-0.262 0.37-0.403 0.633-0.316s0.404 0.37 0.316 0.633l-0.5 1.5c-0.070 0.209-0.265 0.342-0.474 0.342z"></path>
<path fill="#a0e1fd" style="fill: var(--color26, #a0e1fd)" d="M21 27c-0.052 0-0.106-0.008-0.158-0.026-0.262-0.087-0.404-0.37-0.316-0.633l0.5-1.5c0.087-0.262 0.371-0.403 0.633-0.316s0.404 0.37 0.316 0.633l-0.5 1.5c-0.070 0.209-0.265 0.342-0.474 0.342z"></path>
<path fill="#a0e1fd" style="fill: var(--color26, #a0e1fd)" d="M20 31c-0.052 0-0.106-0.008-0.158-0.026-0.262-0.087-0.404-0.37-0.316-0.633l0.5-1.5c0.087-0.262 0.37-0.403 0.633-0.316s0.404 0.37 0.316 0.633l-0.5 1.5c-0.070 0.209-0.265 0.342-0.474 0.342z"></path>
<path fill="#a0e1fd" style="fill: var(--color26, #a0e1fd)" d="M24 29.5c-0.052 0-0.106-0.008-0.158-0.026-0.262-0.087-0.404-0.37-0.316-0.633l0.5-1.5c0.087-0.262 0.37-0.403 0.633-0.316s0.404 0.37 0.316 0.633l-0.5 1.5c-0.070 0.209-0.265 0.342-0.474 0.342z"></path>
</symbol>
<symbol id="icon-11n" viewBox="0 0 32 32">
<path fill="#edebfd" style="fill: var(--color22, #edebfd)" d="M27.488 7.663c-0.173-2.568-2.302-4.616-4.898-4.662-2.563-4.208-8.786-3.934-10.955 0.501-2.204-0.062-4.23 1.347-4.907 3.505-2.631 0.141-4.728 2.327-4.728 4.993 0 3.503 3.527 5.915 6.776 4.675 1.572 2.488 4.914 3.059 7.224 1.325 2.307 1.733 5.65 1.166 7.224-1.325 3.247 1.239 6.776-1.169 6.776-4.675-0-1.81-0.955-3.446-2.512-4.337z"></path>
<path fill="#d2d2fc" style="fill: var(--color23, #d2d2fc)" d="M23.085 16.881c-1.287 1.833-3.574 2.522-5.582 1.889 1.116-0.349 2.081-1.084 2.72-2.096 0.92 0.351 1.922 0.415 2.862 0.206z"></path>
<path fill="#d2d2fc" style="fill: var(--color23, #d2d2fc)" d="M30 12c0 3.385-3.304 5.781-6.5 4.771 2.026-0.639 3.501-2.536 3.501-4.771 0-1.811-0.955-3.446-2.512-4.337-0.172-2.568-2.302-4.616-4.898-4.662-0.867-1.424-2.255-2.427-3.841-2.819 2.635-0.65 5.412 0.471 6.841 2.819 2.596 0.046 4.726 2.094 4.898 4.662 1.557 0.891 2.512 2.526 2.512 4.337z"></path>
<path fill="#f1cc76" style="fill: var(--color24, #f1cc76)" d="M19 23.5h-2v-3c0-0.509-0.675-0.691-0.932-0.252l-3.5 6c-0.194 0.333 0.046 0.752 0.432 0.752h1.947l-0.445 4.45c-0.055 0.544 0.683 0.765 0.939 0.285l4-7.5c0.177-0.332-0.064-0.735-0.441-0.735z"></path>
<path fill="#ebb15d" style="fill: var(--color25, #ebb15d)" d="M17 20.5v3h-2v-1.421l1.068-1.831c0.256-0.44 0.932-0.257 0.932 0.252z"></path>
<path fill="#ebb15d" style="fill: var(--color25, #ebb15d)" d="M19.441 24.235l-4 7.5c-0.256 0.482-0.993 0.258-0.939-0.285l0.21-2.098 2.729-5.117c0.177-0.332-0.064-0.735-0.441-0.735h2c0.378 0 0.619 0.403 0.441 0.735z"></path>
<path fill="#a0e1fd" style="fill: var(--color26, #a0e1fd)" d="M6.5 21c-0.052 0-0.106-0.008-0.158-0.026-0.262-0.087-0.404-0.37-0.316-0.633l0.5-1.5c0.087-0.262 0.37-0.403 0.633-0.316s0.404 0.37 0.316 0.633l-0.5 1.5c-0.070 0.209-0.265 0.342-0.474 0.342z"></path>
<path fill="#a0e1fd" style="fill: var(--color26, #a0e1fd)" d="M3 23c-0.052 0-0.106-0.008-0.158-0.026-0.262-0.087-0.404-0.37-0.316-0.633l0.5-1.5c0.087-0.262 0.37-0.403 0.632-0.316s0.404 0.37 0.316 0.633l-0.5 1.5c-0.070 0.209-0.265 0.342-0.474 0.342z"></path>
<path fill="#a0e1fd" style="fill: var(--color26, #a0e1fd)" d="M5 25.5c-0.052 0-0.106-0.008-0.158-0.026-0.262-0.087-0.404-0.37-0.316-0.633l0.5-1.5c0.087-0.262 0.37-0.403 0.633-0.316s0.404 0.37 0.316 0.633l-0.5 1.5c-0.070 0.209-0.265 0.342-0.474 0.342z"></path>
<path fill="#a0e1fd" style="fill: var(--color26, #a0e1fd)" d="M4 29.5c-0.052 0-0.106-0.008-0.158-0.026-0.262-0.087-0.404-0.37-0.316-0.633l0.5-1.5c0.087-0.262 0.371-0.403 0.633-0.316s0.404 0.37 0.316 0.633l-0.5 1.5c-0.070 0.209-0.265 0.342-0.474 0.342z"></path>
<path fill="#a0e1fd" style="fill: var(--color26, #a0e1fd)" d="M8 28c-0.052 0-0.106-0.008-0.158-0.026-0.262-0.087-0.404-0.37-0.316-0.633l0.5-1.5c0.087-0.262 0.371-0.403 0.633-0.316s0.403 0.37 0.316 0.633l-0.5 1.5c-0.070 0.209-0.265 0.342-0.474 0.342z"></path>
<path fill="#a0e1fd" style="fill: var(--color26, #a0e1fd)" d="M6.5 32c-0.052 0-0.106-0.008-0.158-0.026-0.262-0.087-0.404-0.37-0.316-0.633l0.5-1.5c0.087-0.262 0.37-0.403 0.633-0.316s0.404 0.37 0.316 0.633l-0.5 1.5c-0.070 0.209-0.265 0.342-0.474 0.342z"></path>
<path fill="#a0e1fd" style="fill: var(--color26, #a0e1fd)" d="M10.5 31c-0.052 0-0.106-0.008-0.158-0.026-0.262-0.087-0.403-0.37-0.316-0.633l0.5-1.5c0.087-0.262 0.371-0.403 0.633-0.316s0.403 0.37 0.316 0.633l-0.5 1.5c-0.070 0.209-0.265 0.342-0.474 0.342z"></path>
<path fill="#a0e1fd" style="fill: var(--color26, #a0e1fd)" d="M9 23.5c-0.052 0-0.106-0.008-0.158-0.026-0.262-0.087-0.403-0.37-0.316-0.633l0.5-1.5c0.087-0.262 0.37-0.403 0.633-0.316s0.403 0.37 0.316 0.633l-0.5 1.5c-0.070 0.209-0.265 0.342-0.474 0.342z"></path>
<path fill="#a0e1fd" style="fill: var(--color26, #a0e1fd)" d="M12 23.5c-0.052 0-0.106-0.008-0.158-0.026-0.262-0.087-0.403-0.37-0.316-0.633l0.5-1.5c0.087-0.262 0.371-0.403 0.633-0.316s0.403 0.37 0.316 0.633l-0.5 1.5c-0.070 0.209-0.265 0.342-0.474 0.342z"></path>
<path fill="#a0e1fd" style="fill: var(--color26, #a0e1fd)" d="M22.5 23c-0.052 0-0.106-0.008-0.158-0.026-0.262-0.087-0.404-0.37-0.316-0.633l0.5-1.5c0.087-0.262 0.37-0.403 0.633-0.316s0.404 0.37 0.316 0.633l-0.5 1.5c-0.070 0.209-0.265 0.342-0.474 0.342z"></path>
<path fill="#a0e1fd" style="fill: var(--color26, #a0e1fd)" d="M26.5 21.5c-0.052 0-0.106-0.008-0.158-0.026-0.262-0.087-0.404-0.37-0.316-0.633l0.5-1.5c0.087-0.262 0.37-0.403 0.633-0.316s0.404 0.37 0.316 0.633l-0.5 1.5c-0.070 0.209-0.265 0.342-0.474 0.342z"></path>
<path fill="#a0e1fd" style="fill: var(--color26, #a0e1fd)" d="M25.5 25.5c-0.052 0-0.106-0.008-0.158-0.026-0.262-0.087-0.404-0.37-0.316-0.633l0.5-1.5c0.087-0.262 0.37-0.403 0.633-0.316s0.404 0.37 0.316 0.633l-0.5 1.5c-0.070 0.209-0.265 0.342-0.474 0.342z"></path>
<path fill="#a0e1fd" style="fill: var(--color26, #a0e1fd)" d="M21 27c-0.052 0-0.106-0.008-0.158-0.026-0.262-0.087-0.404-0.37-0.316-0.633l0.5-1.5c0.087-0.262 0.371-0.403 0.633-0.316s0.404 0.37 0.316 0.633l-0.5 1.5c-0.070 0.209-0.265 0.342-0.474 0.342z"></path>
<path fill="#a0e1fd" style="fill: var(--color26, #a0e1fd)" d="M20 31c-0.052 0-0.106-0.008-0.158-0.026-0.262-0.087-0.404-0.37-0.316-0.633l0.5-1.5c0.087-0.262 0.37-0.403 0.633-0.316s0.404 0.37 0.316 0.633l-0.5 1.5c-0.070 0.209-0.265 0.342-0.474 0.342z"></path>
<path fill="#a0e1fd" style="fill: var(--color26, #a0e1fd)" d="M24 29.5c-0.052 0-0.106-0.008-0.158-0.026-0.262-0.087-0.404-0.37-0.316-0.633l0.5-1.5c0.087-0.262 0.37-0.403 0.633-0.316s0.404 0.37 0.316 0.633l-0.5 1.5c-0.070 0.209-0.265 0.342-0.474 0.342z"></path>
</symbol>
<symbol id="icon-13d" viewBox="0 0 32 32">
<path fill="#a2ddfd" style="fill: var(--color27, #a2ddfd)" d="M31.034 15.034h-2.172l1.083-1.083c0.377-0.377 0.377-0.989 0-1.366s-0.989-0.377-1.366 0l-2.449 2.449h-2.732l1.083-1.083c0.377-0.377 0.377-0.989 0-1.366s-0.989-0.377-1.366 0l-2.449 2.449h-2.336l5.515-5.515h3.463c0.533 0 0.966-0.432 0.966-0.966s-0.432-0.966-0.966-0.966h-1.532l1.536-1.536c0.377-0.377 0.377-0.989 0-1.366s-0.989-0.377-1.366 0l-1.536 1.536v-1.532c0-0.533-0.432-0.966-0.966-0.966s-0.966 0.432-0.966 0.966v3.463l-5.515 5.515v-2.336l2.449-2.449c0.377-0.377 0.377-0.989 0-1.366s-0.989-0.377-1.366 0l-1.083 1.083v-2.732l2.449-2.449c0.377-0.377 0.377-0.989 0-1.366s-0.989-0.377-1.366 0l-1.083 1.083v-2.172c0-0.533-0.432-0.966-0.966-0.966s-0.966 0.432-0.966 0.966v2.172l-1.083-1.083c-0.377-0.377-0.989-0.377-1.366 0s-0.377 0.989 0 1.366l2.449 2.449v2.732l-1.083-1.083c-0.377-0.377-0.989-0.377-1.366 0s-0.377 0.989 0 1.366l2.449 2.449v2.336l-5.515-5.515v-3.463c0-0.533-0.432-0.966-0.966-0.966s-0.966 0.432-0.966 0.966v1.532l-1.536-1.536c-0.377-0.377-0.989-0.377-1.366 0s-0.377 0.989 0 1.366l1.536 1.536h-1.532c-0.533 0-0.966 0.432-0.966 0.966s0.432 0.966 0.966 0.966h3.463l5.515 5.515h-2.336l-2.449-2.449c-0.377-0.377-0.989-0.377-1.366 0s-0.377 0.989 0 1.366l1.083 1.083h-2.732l-2.449-2.449c-0.377-0.377-0.989-0.377-1.366 0s-0.377 0.989 0 1.366l1.083 1.083h-2.172c-0.533 0-0.966 0.432-0.966 0.966s0.432 0.966 0.966 0.966h2.172l-1.083 1.083c-0.377 0.377-0.377 0.989 0 1.366s0.989 0.377 1.366 0l2.449-2.449h2.732l-1.083 1.083c-0.377 0.377-0.377 0.989 0 1.366s0.989 0.377 1.366 0l2.449-2.449h2.336l-5.515 5.515h-3.463c-0.533 0-0.966 0.432-0.966 0.966s0.432 0.966 0.966 0.966h1.532l-1.536 1.536c-0.377 0.377-0.377 0.989 0 1.366s0.989 0.377 1.366 0l1.536-1.536v1.532c0 0.533 0.432 0.966 0.966 0.966s0.966-0.432 0.966-0.966v-3.463l5.515-5.515v2.336l-2.449 2.449c-0.377 0.377-0.377 0.989 0 1.366s0.989 0.377 1.366 0l1.083-1.083v2.732l-2.449 2.449c-0.377 0.377-0.377 0.989 0 1.366s0.989 0.377 1.366 0l1.083-1.083v2.172c0 0.533 0.432 0.966 0.966 0.966s0.966-0.432 0.966-0.966v-2.172l1.083 1.083c0.377 0.377 0.989 0.377 1.366 0s0.377-0.989 0-1.366l-2.449-2.449v-2.732l1.083 1.083c0.377 0.377 0.989 0.377 1.366 0s0.377-0.989 0-1.366l-2.449-2.449v-2.336l5.515 5.515v3.463c0 0.533 0.432 0.966 0.966 0.966s0.966-0.432 0.966-0.966v-1.532l1.536 1.536c0.377 0.377 0.989 0.377 1.366 0s0.377-0.989 0-1.366l-1.536-1.536h1.532c0.533 0 0.966-0.432 0.966-0.966s-0.432-0.966-0.966-0.966h-3.463l-5.515-5.515h2.336l2.449 2.449c0.377 0.377 0.989 0.377 1.366 0s0.377-0.989 0-1.366l-1.083-1.083h2.732l2.449 2.449c0.377 0.377 0.989 0.377 1.366 0s0.377-0.989 0-1.366l-1.083-1.083h2.172c0.533 0 0.966-0.432 0.966-0.966s-0.432-0.966-0.966-0.966z"></path>
<path fill="#7acdf9" style="fill: var(--color28, #7acdf9)" d="M20.667 16.966c-0.533 0-0.966-0.432-0.966-0.966s0.432-0.966 0.966-0.966h-2.336l1.652-1.652c-0.377 0.377-0.989 0.377-1.366 0s-0.377-0.989 0-1.366l-1.652 1.652v-2.336l2.449-2.449c0.377-0.377 0.377-0.989 0-1.366s-0.989-0.377-1.366 0l-1.083 1.083v-2.732l2.449-2.449c0.377-0.377 0.377-0.989 0-1.366s-0.989-0.377-1.366 0l-1.083 1.083v-2.172c0-0.533-0.432-0.966-0.966-0.966s-0.966 0.432-0.966 0.966v2.172l-1.083-1.083c-0.377-0.377-0.989-0.377-1.366 0s-0.377 0.989 0 1.366l2.449 2.449v2.732l-1.083-1.083c-0.377-0.377-0.989-0.377-1.366 0s-0.377 0.989 0 1.366l2.449 2.449v2.336l-5.515-5.515v-3.463c0-0.533-0.432-0.966-0.966-0.966s-0.966 0.432-0.966 0.966v1.532l-1.536-1.536c-0.377-0.377-0.989-0.377-1.366 0s-0.377 0.989 0 1.366l1.536 1.536h-1.532c-0.533 0-0.966 0.432-0.966 0.966s0.432 0.966 0.966 0.966h3.463l5.515 5.515h-2.336l-2.449-2.449c-0.377-0.377-0.989-0.377-1.366 0s-0.377 0.989 0 1.366l1.083 1.083h-2.732l-2.449-2.449c-0.377-0.377-0.989-0.377-1.366 0s-0.377 0.989 0 1.366l1.083 1.083h-2.172c-0.533 0-0.966 0.432-0.966 0.966s0.432 0.966 0.966 0.966h2.172l-1.083 1.083c-0.377 0.377-0.377 0.989 0 1.366s0.989 0.377 1.366 0l2.449-2.449h2.732l-1.083 1.083c-0.377 0.377-0.377 0.989 0 1.366s0.989 0.377 1.366 0l2.449-2.449h2.336l-5.515 5.515h-3.463c-0.533 0-0.966 0.432-0.966 0.966s0.432 0.966 0.966 0.966h1.532l-1.536 1.536c-0.377 0.377-0.377 0.989 0 1.366s0.989 0.377 1.366 0l1.536-1.536v1.532c0 0.533 0.432 0.966 0.966 0.966s0.966-0.432 0.966-0.966v-3.463l5.515-5.515v2.336l-2.449 2.449c-0.377 0.377-0.377 0.989 0 1.366s0.989 0.377 1.366 0l1.083-1.083v2.732l-2.449 2.449c-0.377 0.377-0.377 0.989 0 1.366s0.989 0.377 1.366 0l1.083-1.083v2.172c0 0.533 0.432 0.966 0.966 0.966s0.966-0.432 0.966-0.966v-2.172l1.083 1.083c0.377 0.377 0.989 0.377 1.366 0s0.377-0.989 0-1.366l-2.449-2.449v-2.732l1.083 1.083c0.377 0.377 0.989 0.377 1.366 0s0.377-0.989 0-1.366l-2.449-2.449v-2.336l1.652 1.652c-0.377-0.377-0.377-0.989 0-1.366s0.989-0.377 1.366-0l-1.652-1.652z"></path>
</symbol>
<symbol id="icon-13n" viewBox="0 0 32 32">
<path fill="#a2ddfd" style="fill: var(--color27, #a2ddfd)" d="M31.034 15.034h-2.172l1.083-1.083c0.377-0.377 0.377-0.989 0-1.366s-0.989-0.377-1.366 0l-2.449 2.449h-2.732l1.083-1.083c0.377-0.377 0.377-0.989 0-1.366s-0.989-0.377-1.366 0l-2.449 2.449h-2.336l5.515-5.515h3.463c0.533 0 0.966-0.432 0.966-0.966s-0.432-0.966-0.966-0.966h-1.532l1.536-1.536c0.377-0.377 0.377-0.989 0-1.366s-0.989-0.377-1.366 0l-1.536 1.536v-1.532c0-0.533-0.432-0.966-0.966-0.966s-0.966 0.432-0.966 0.966v3.463l-5.515 5.515v-2.336l2.449-2.449c0.377-0.377 0.377-0.989 0-1.366s-0.989-0.377-1.366 0l-1.083 1.083v-2.732l2.449-2.449c0.377-0.377 0.377-0.989 0-1.366s-0.989-0.377-1.366 0l-1.083 1.083v-2.172c0-0.533-0.432-0.966-0.966-0.966s-0.966 0.432-0.966 0.966v2.172l-1.083-1.083c-0.377-0.377-0.989-0.377-1.366 0s-0.377 0.989 0 1.366l2.449 2.449v2.732l-1.083-1.083c-0.377-0.377-0.989-0.377-1.366 0s-0.377 0.989 0 1.366l2.449 2.449v2.336l-5.515-5.515v-3.463c0-0.533-0.432-0.966-0.966-0.966s-0.966 0.432-0.966 0.966v1.532l-1.536-1.536c-0.377-0.377-0.989-0.377-1.366 0s-0.377 0.989 0 1.366l1.536 1.536h-1.532c-0.533 0-0.966 0.432-0.966 0.966s0.432 0.966 0.966 0.966h3.463l5.515 5.515h-2.336l-2.449-2.449c-0.377-0.377-0.989-0.377-1.366 0s-0.377 0.989 0 1.366l1.083 1.083h-2.732l-2.449-2.449c-0.377-0.377-0.989-0.377-1.366 0s-0.377 0.989 0 1.366l1.083 1.083h-2.172c-0.533 0-0.966 0.432-0.966 0.966s0.432 0.966 0.966 0.966h2.172l-1.083 1.083c-0.377 0.377-0.377 0.989 0 1.366s0.989 0.377 1.366 0l2.449-2.449h2.732l-1.083 1.083c-0.377 0.377-0.377 0.989 0 1.366s0.989 0.377 1.366 0l2.449-2.449h2.336l-5.515 5.515h-3.463c-0.533 0-0.966 0.432-0.966 0.966s0.432 0.966 0.966 0.966h1.532l-1.536 1.536c-0.377 0.377-0.377 0.989 0 1.366s0.989 0.377 1.366 0l1.536-1.536v1.532c0 0.533 0.432 0.966 0.966 0.966s0.966-0.432 0.966-0.966v-3.463l5.515-5.515v2.336l-2.449 2.449c-0.377 0.377-0.377 0.989 0 1.366s0.989 0.377 1.366 0l1.083-1.083v2.732l-2.449 2.449c-0.377 0.377-0.377 0.989 0 1.366s0.989 0.377 1.366 0l1.083-1.083v2.172c0 0.533 0.432 0.966 0.966 0.966s0.966-0.432 0.966-0.966v-2.172l1.083 1.083c0.377 0.377 0.989 0.377 1.366 0s0.377-0.989 0-1.366l-2.449-2.449v-2.732l1.083 1.083c0.377 0.377 0.989 0.377 1.366 0s0.377-0.989 0-1.366l-2.449-2.449v-2.336l5.515 5.515v3.463c0 0.533 0.432 0.966 0.966 0.966s0.966-0.432 0.966-0.966v-1.532l1.536 1.536c0.377 0.377 0.989 0.377 1.366 0s0.377-0.989 0-1.366l-1.536-1.536h1.532c0.533 0 0.966-0.432 0.966-0.966s-0.432-0.966-0.966-0.966h-3.463l-5.515-5.515h2.336l2.449 2.449c0.377 0.377 0.989 0.377 1.366 0s0.377-0.989 0-1.366l-1.083-1.083h2.732l2.449 2.449c0.377 0.377 0.989 0.377 1.366 0s0.377-0.989 0-1.366l-1.083-1.083h2.172c0.533 0 0.966-0.432 0.966-0.966s-0.432-0.966-0.966-0.966z"></path>
<path fill="#7acdf9" style="fill: var(--color28, #7acdf9)" d="M20.667 16.966c-0.533 0-0.966-0.432-0.966-0.966s0.432-0.966 0.966-0.966h-2.336l1.652-1.652c-0.377 0.377-0.989 0.377-1.366 0s-0.377-0.989 0-1.366l-1.652 1.652v-2.336l2.449-2.449c0.377-0.377 0.377-0.989 0-1.366s-0.989-0.377-1.366 0l-1.083 1.083v-2.732l2.449-2.449c0.377-0.377 0.377-0.989 0-1.366s-0.989-0.377-1.366 0l-1.083 1.083v-2.172c0-0.533-0.432-0.966-0.966-0.966s-0.966 0.432-0.966 0.966v2.172l-1.083-1.083c-0.377-0.377-0.989-0.377-1.366 0s-0.377 0.989 0 1.366l2.449 2.449v2.732l-1.083-1.083c-0.377-0.377-0.989-0.377-1.366 0s-0.377 0.989 0 1.366l2.449 2.449v2.336l-5.515-5.515v-3.463c0-0.533-0.432-0.966-0.966-0.966s-0.966 0.432-0.966 0.966v1.532l-1.536-1.536c-0.377-0.377-0.989-0.377-1.366 0s-0.377 0.989 0 1.366l1.536 1.536h-1.532c-0.533 0-0.966 0.432-0.966 0.966s0.432 0.966 0.966 0.966h3.463l5.515 5.515h-2.336l-2.449-2.449c-0.377-0.377-0.989-0.377-1.366 0s-0.377 0.989 0 1.366l1.083 1.083h-2.732l-2.449-2.449c-0.377-0.377-0.989-0.377-1.366 0s-0.377 0.989 0 1.366l1.083 1.083h-2.172c-0.533 0-0.966 0.432-0.966 0.966s0.432 0.966 0.966 0.966h2.172l-1.083 1.083c-0.377 0.377-0.377 0.989 0 1.366s0.989 0.377 1.366 0l2.449-2.449h2.732l-1.083 1.083c-0.377 0.377-0.377 0.989 0 1.366s0.989 0.377 1.366 0l2.449-2.449h2.336l-5.515 5.515h-3.463c-0.533 0-0.966 0.432-0.966 0.966s0.432 0.966 0.966 0.966h1.532l-1.536 1.536c-0.377 0.377-0.377 0.989 0 1.366s0.989 0.377 1.366 0l1.536-1.536v1.532c0 0.533 0.432 0.966 0.966 0.966s0.966-0.432 0.966-0.966v-3.463l5.515-5.515v2.336l-2.449 2.449c-0.377 0.377-0.377 0.989 0 1.366s0.989 0.377 1.366 0l1.083-1.083v2.732l-2.449 2.449c-0.377 0.377-0.377 0.989 0 1.366s0.989 0.377 1.366 0l1.083-1.083v2.172c0 0.533 0.432 0.966 0.966 0.966s0.966-0.432 0.966-0.966v-2.172l1.083 1.083c0.377 0.377 0.989 0.377 1.366 0s0.377-0.989 0-1.366l-2.449-2.449v-2.732l1.083 1.083c0.377 0.377 0.989 0.377 1.366 0s0.377-0.989 0-1.366l-2.449-2.449v-2.336l1.652 1.652c-0.377-0.377-0.377-0.989 0-1.366s0.989-0.377 1.366-0l-1.652-1.652z"></path>
</symbol>
<symbol id="icon-50d" viewBox="0 0 32 32">
<path fill="#beebfa" style="fill: var(--color29, #beebfa)" d="M28.391 8.336c-0.411-0-0.807-0.067-1.177-0.189l0.027 0.008-1.13-0.363c-0.244-0.081-0.526-0.128-0.818-0.128s-0.574 0.047-0.837 0.134l0.019-0.005-0.854 0.275c-0.426 0.142-0.917 0.224-1.427 0.224s-1.001-0.082-1.46-0.233l0.033 0.009-0.853-0.275c-0.244-0.081-0.526-0.128-0.818-0.128s-0.574 0.047-0.837 0.134l0.019-0.005-1.128 0.362c-0.344 0.115-0.74 0.182-1.152 0.182s-0.808-0.067-1.178-0.19l0.026 0.008-1.126-0.362c-0.245-0.081-0.526-0.128-0.819-0.128s-0.574 0.047-0.838 0.134l0.019-0.005-0.851 0.273c-0.427 0.142-0.918 0.224-1.428 0.224s-1.001-0.082-1.461-0.233l0.033 0.009-0.85-0.274c-0.244-0.081-0.526-0.128-0.818-0.128s-0.574 0.047-0.837 0.134l0.019-0.005-0.852 0.275c-0.426 0.142-0.917 0.224-1.427 0.224s-1.001-0.082-1.46-0.233l0.033 0.009-1.118-0.36c-0.366-0.12-0.626-0.459-0.626-0.859 0-0.099 0.016-0.194 0.045-0.283l-0.002 0.006 0.057-0.177c0.12-0.366 0.459-0.626 0.859-0.626 0.099 0 0.194 0.016 0.282 0.045l-0.006-0.002 1.116 0.359c0.244 0.081 0.526 0.128 0.818 0.128s0.574-0.047 0.837-0.134l-0.019 0.005 0.852-0.274c0.426-0.142 0.917-0.224 1.427-0.224s1.001 0.082 1.46 0.233l-0.033-0.009 0.851 0.274c0.245 0.081 0.526 0.128 0.819 0.128s0.574-0.047 0.838-0.134l-0.019 0.005 0.851-0.274c0.427-0.142 0.918-0.224 1.428-0.224s1.001 0.082 1.461 0.233l-0.033-0.009 0.85 0.273c0.245 0.081 0.526 0.128 0.819 0.128s0.574-0.047 0.838-0.134l-0.019 0.005 0.852-0.275c0.426-0.142 0.917-0.224 1.427-0.224s1.001 0.082 1.46 0.233l-0.033-0.009 0.853 0.276c0.245 0.081 0.526 0.128 0.819 0.128s0.574-0.047 0.838-0.134l-0.019 0.005 0.853-0.275c0.426-0.142 0.917-0.223 1.427-0.223s1.001 0.082 1.46 0.233l-0.033-0.009 0.855 0.275c0.244 0.081 0.526 0.128 0.818 0.128s0.574-0.047 0.837-0.134l-0.019 0.005 1.118-0.359c0.082-0.027 0.177-0.043 0.276-0.043 0.4 0 0.739 0.26 0.858 0.62l0.002 0.006 0.057 0.177c0.027 0.082 0.043 0.177 0.043 0.276 0 0.4-0.26 0.739-0.62 0.857l-0.006 0.002-1.394 0.448c-0.344 0.115-0.74 0.181-1.152 0.181h-0z"></path>
<path fill="#9ee2f8" style="fill: var(--color30, #9ee2f8)" d="M28.391 12.834c-0.411-0-0.807-0.067-1.177-0.189l0.027 0.008-1.407-0.453c-0.162-0.054-0.348-0.085-0.542-0.085s-0.38 0.031-0.554 0.089l0.012-0.004-1.128 0.363c-0.427 0.142-0.918 0.224-1.428 0.224s-1.001-0.082-1.461-0.233l0.033 0.009-0.852-0.274c-0.244-0.081-0.526-0.128-0.818-0.128s-0.574 0.047-0.837 0.134l0.019-0.005-0.853 0.274c-0.427 0.142-0.918 0.224-1.428 0.224s-1.002-0.082-1.461-0.233l0.033 0.009-0.85-0.273c-0.245-0.081-0.526-0.128-0.819-0.128s-0.574 0.047-0.838 0.134l0.019-0.005-0.851 0.274c-0.427 0.142-0.918 0.224-1.428 0.224s-1.001-0.082-1.461-0.233l0.033 0.009-0.851-0.274c-0.245-0.081-0.526-0.128-0.819-0.128s-0.574 0.047-0.838 0.134l0.019-0.005-1.127 0.362c-0.335 0.112-0.721 0.178-1.122 0.181h-0.002c-0 0-0 0-0 0-0.498 0-0.902-0.404-0.902-0.902 0-0.099 0.016-0.195 0.046-0.284l-0.002 0.006 0.060-0.188c0.112-0.354 0.431-0.609 0.811-0.624l0.002-0c0.18-0.005 0.351-0.036 0.513-0.089l-0.013 0.004 1.127-0.362c0.426-0.142 0.917-0.224 1.428-0.224s1.001 0.082 1.461 0.233l-0.033-0.009 0.851 0.274c0.245 0.081 0.526 0.128 0.819 0.128s0.574-0.047 0.838-0.134l-0.019 0.005 0.851-0.274c0.427-0.142 0.918-0.224 1.428-0.224s1.001 0.082 1.461 0.233l-0.033-0.009 0.85 0.273c0.245 0.081 0.526 0.128 0.819 0.128s0.574-0.047 0.838-0.134l-0.019 0.005 0.852-0.274c0.426-0.142 0.917-0.224 1.427-0.224s1.001 0.082 1.46 0.233l-0.033-0.009 0.853 0.275c0.244 0.081 0.526 0.128 0.818 0.128s0.574-0.047 0.837-0.134l-0.019 0.005 0.852-0.274c0.426-0.142 0.917-0.224 1.427-0.224s1.001 0.082 1.46 0.233l-0.033-0.009 1.13 0.363c0.149 0.050 0.32 0.080 0.498 0.085l0.002 0c0.382 0.016 0.701 0.271 0.811 0.619l0.002 0.006 0.065 0.201c0.028 0.083 0.045 0.179 0.045 0.279 0 0.483-0.386 0.877-0.867 0.888l-0.001 0z"></path>
<path fill="#beebfa" style="fill: var(--color29, #beebfa)" d="M28.391 17.332c-0.411-0-0.807-0.067-1.177-0.189l0.027 0.008-1.13-0.363c-0.244-0.081-0.526-0.128-0.818-0.128s-0.574 0.047-0.837 0.134l0.019-0.005-0.854 0.275c-0.426 0.142-0.917 0.224-1.427 0.224s-1.001-0.082-1.46-0.233l0.033 0.009-0.853-0.275c-0.244-0.081-0.526-0.128-0.818-0.128s-0.574 0.047-0.837 0.134l0.019-0.005-1.128 0.363c-0.344 0.115-0.74 0.182-1.152 0.182s-0.808-0.067-1.178-0.189l0.026 0.008-1.126-0.362c-0.245-0.081-0.526-0.128-0.819-0.128s-0.574 0.047-0.838 0.134l0.019-0.005-0.851 0.273c-0.427 0.142-0.918 0.224-1.428 0.224s-1.001-0.082-1.461-0.233l0.033 0.009-0.85-0.273c-0.244-0.081-0.526-0.128-0.818-0.128s-0.574 0.047-0.837 0.134l0.019-0.005-0.852 0.274c-0.426 0.142-0.917 0.224-1.427 0.224s-1.001-0.082-1.46-0.233l0.033 0.009-1.118-0.359c-0.366-0.12-0.626-0.459-0.626-0.859 0-0.099 0.016-0.194 0.045-0.282l-0.002 0.006 0.057-0.177c0.12-0.366 0.459-0.626 0.859-0.626 0.099 0 0.194 0.016 0.283 0.045l-0.006-0.002 1.116 0.358c0.244 0.081 0.526 0.128 0.818 0.128s0.574-0.047 0.837-0.134l-0.019 0.005 0.852-0.274c0.426-0.142 0.917-0.224 1.427-0.224s1.001 0.082 1.46 0.233l-0.033-0.009 0.851 0.274c0.245 0.081 0.526 0.128 0.819 0.128s0.574-0.047 0.838-0.134l-0.019 0.005 0.851-0.274c0.427-0.142 0.918-0.224 1.428-0.224s1.001 0.082 1.461 0.233l-0.033-0.009 0.85 0.273c0.245 0.081 0.526 0.128 0.819 0.128s0.574-0.047 0.838-0.134l-0.019 0.005 0.852-0.274c0.426-0.142 0.917-0.224 1.427-0.224s1.001 0.082 1.46 0.233l-0.033-0.009 0.853 0.275c0.244 0.081 0.526 0.128 0.818 0.128s0.574-0.047 0.837-0.134l-0.019 0.005 0.852-0.274c0.426-0.142 0.917-0.224 1.427-0.224s1.001 0.082 1.46 0.233l-0.033-0.009 0.854 0.275c0.244 0.081 0.526 0.128 0.818 0.128s0.574-0.047 0.837-0.134l-0.019 0.005 1.118-0.359c0.082-0.027 0.177-0.043 0.276-0.043 0.4 0 0.739 0.26 0.857 0.62l0.002 0.006 0.057 0.177c0.027 0.082 0.043 0.177 0.043 0.276 0 0.4-0.26 0.739-0.62 0.857l-0.006 0.002-1.394 0.446c-0.344 0.115-0.74 0.181-1.151 0.182h-0z"></path>
<path fill="#9ee2f8" style="fill: var(--color30, #9ee2f8)" d="M28.391 21.829c-0.411-0-0.807-0.067-1.177-0.189l0.027 0.008-1.131-0.363c-0.244-0.081-0.526-0.128-0.818-0.128s-0.574 0.047-0.837 0.134l0.019-0.005-0.852 0.274c-0.426 0.142-0.917 0.224-1.427 0.224s-1.001-0.082-1.46-0.233l0.033 0.009-0.853-0.275c-0.244-0.081-0.526-0.128-0.818-0.128s-0.574 0.047-0.837 0.134l0.019-0.005-0.852 0.275c-0.427 0.142-0.918 0.224-1.428 0.224s-1.001-0.082-1.461-0.233l0.033 0.009-0.85-0.273c-0.245-0.081-0.526-0.128-0.819-0.128s-0.574 0.047-0.838 0.134l0.019-0.005-0.851 0.273c-0.427 0.142-0.918 0.224-1.428 0.224s-1.001-0.082-1.461-0.233l0.033 0.009-0.851-0.273c-0.245-0.081-0.526-0.128-0.819-0.128s-0.574 0.047-0.838 0.134l0.019-0.005-1.127 0.362c-0.335 0.112-0.721 0.178-1.122 0.181h-0.002c-0 0-0 0-0 0-0.498 0-0.902-0.404-0.902-0.902 0-0.099 0.016-0.194 0.045-0.283l-0.002 0.006 0.060-0.188c0.112-0.354 0.431-0.609 0.811-0.624l0.002-0c0.18-0.005 0.351-0.035 0.513-0.089l-0.013 0.004 1.127-0.362c0.427-0.142 0.918-0.224 1.428-0.224s1.001 0.082 1.461 0.233l-0.033-0.009 0.851 0.273c0.245 0.081 0.526 0.128 0.819 0.128s0.574-0.047 0.838-0.134l-0.019 0.005 0.851-0.273c0.427-0.142 0.918-0.224 1.428-0.224s1.001 0.082 1.461 0.233l-0.033-0.009 0.85 0.273c0.245 0.081 0.526 0.128 0.819 0.128s0.574-0.047 0.838-0.134l-0.019 0.005 0.85-0.273c0.427-0.142 0.918-0.224 1.428-0.224s1.001 0.082 1.461 0.233l-0.033-0.009 0.852 0.274c0.245 0.081 0.526 0.128 0.819 0.128s0.574-0.047 0.838-0.134l-0.019 0.005 0.852-0.273c0.426-0.142 0.917-0.224 1.427-0.224s1.001 0.082 1.46 0.233l-0.033-0.009 1.13 0.363c0.149 0.049 0.32 0.080 0.498 0.085l0.002 0c0.382 0.015 0.7 0.27 0.811 0.617l0.002 0.006 0.065 0.201c0.028 0.083 0.045 0.179 0.045 0.279 0 0.483-0.386 0.877-0.867 0.888l-0.001 0z"></path>
<path fill="#beebfa" style="fill: var(--color29, #beebfa)" d="M28.391 26.328c-0.411-0-0.807-0.067-1.177-0.189l0.027 0.008-1.13-0.363c-0.244-0.081-0.526-0.128-0.818-0.128s-0.574 0.047-0.837 0.134l0.019-0.005-0.853 0.275c-0.426 0.142-0.917 0.224-1.427 0.224s-1.001-0.082-1.46-0.233l0.033 0.009-0.853-0.275c-0.244-0.081-0.526-0.128-0.818-0.128s-0.574 0.047-0.837 0.134l0.019-0.005-1.128 0.362c-0.344 0.115-0.74 0.182-1.152 0.182s-0.808-0.067-1.178-0.189l0.026 0.008-1.127-0.362c-0.245-0.081-0.526-0.128-0.819-0.128s-0.574 0.047-0.838 0.134l0.019-0.005-0.851 0.273c-0.427 0.142-0.918 0.224-1.428 0.224s-1.001-0.082-1.461-0.233l0.033 0.009-0.85-0.273c-0.245-0.081-0.526-0.128-0.819-0.128s-0.574 0.047-0.838 0.134l0.019-0.005-0.851 0.273c-0.426 0.142-0.917 0.224-1.427 0.224s-1.001-0.082-1.46-0.233l0.033 0.009-1.116-0.358c-0.366-0.12-0.626-0.459-0.626-0.859 0-0.099 0.016-0.194 0.045-0.282l-0.002 0.006 0.057-0.177c0.12-0.366 0.459-0.626 0.859-0.626 0.099 0 0.194 0.016 0.282 0.045l-0.006-0.002 1.116 0.358c0.244 0.081 0.526 0.128 0.818 0.128s0.574-0.047 0.837-0.134l-0.019 0.005 0.852-0.274c0.426-0.142 0.917-0.224 1.427-0.224s1.001 0.082 1.46 0.233l-0.033-0.009 0.851 0.273c0.245 0.081 0.526 0.128 0.819 0.128s0.574-0.047 0.838-0.134l-0.019 0.005 0.851-0.273c0.427-0.142 0.918-0.224 1.428-0.224s1.001 0.082 1.461 0.233l-0.033-0.009 0.85 0.273c0.245 0.081 0.526 0.128 0.819 0.128s0.574-0.047 0.838-0.134l-0.019 0.005 0.852-0.275c0.426-0.142 0.917-0.224 1.427-0.224s1.001 0.082 1.46 0.233l-0.033-0.009 0.852 0.275c0.245 0.081 0.526 0.128 0.819 0.128s0.574-0.047 0.838-0.134l-0.019 0.005 0.853-0.275c0.426-0.142 0.917-0.224 1.427-0.224s1.001 0.082 1.46 0.233l-0.033-0.009 0.855 0.275c0.244 0.081 0.526 0.128 0.818 0.128s0.574-0.047 0.837-0.134l-0.019 0.005 1.118-0.359c0.082-0.027 0.177-0.043 0.276-0.043 0.4 0 0.739 0.26 0.858 0.62l0.002 0.006 0.057 0.177c0.027 0.082 0.043 0.177 0.043 0.276 0 0.4-0.26 0.739-0.62 0.857l-0.006 0.002-1.394 0.448c-0.344 0.115-0.741 0.182-1.152 0.182h-0z"></path>
</symbol>
<symbol id="icon-50n" viewBox="0 0 32 32">
<path fill="#beebfa" style="fill: var(--color29, #beebfa)" d="M28.391 8.336c-0.411-0-0.807-0.067-1.177-0.189l0.027 0.008-1.13-0.363c-0.244-0.081-0.526-0.128-0.818-0.128s-0.574 0.047-0.837 0.134l0.019-0.005-0.854 0.275c-0.426 0.142-0.917 0.224-1.427 0.224s-1.001-0.082-1.46-0.233l0.033 0.009-0.853-0.275c-0.244-0.081-0.526-0.128-0.818-0.128s-0.574 0.047-0.837 0.134l0.019-0.005-1.128 0.362c-0.344 0.115-0.74 0.182-1.152 0.182s-0.808-0.067-1.178-0.19l0.026 0.008-1.126-0.362c-0.245-0.081-0.526-0.128-0.819-0.128s-0.574 0.047-0.838 0.134l0.019-0.005-0.851 0.273c-0.427 0.142-0.918 0.224-1.428 0.224s-1.001-0.082-1.461-0.233l0.033 0.009-0.85-0.274c-0.244-0.081-0.526-0.128-0.818-0.128s-0.574 0.047-0.837 0.134l0.019-0.005-0.852 0.275c-0.426 0.142-0.917 0.224-1.427 0.224s-1.001-0.082-1.46-0.233l0.033 0.009-1.118-0.36c-0.366-0.12-0.626-0.459-0.626-0.859 0-0.099 0.016-0.194 0.045-0.283l-0.002 0.006 0.057-0.177c0.12-0.366 0.459-0.626 0.859-0.626 0.099 0 0.194 0.016 0.282 0.045l-0.006-0.002 1.116 0.359c0.244 0.081 0.526 0.128 0.818 0.128s0.574-0.047 0.837-0.134l-0.019 0.005 0.852-0.274c0.426-0.142 0.917-0.224 1.427-0.224s1.001 0.082 1.46 0.233l-0.033-0.009 0.851 0.274c0.245 0.081 0.526 0.128 0.819 0.128s0.574-0.047 0.838-0.134l-0.019 0.005 0.851-0.274c0.427-0.142 0.918-0.224 1.428-0.224s1.001 0.082 1.461 0.233l-0.033-0.009 0.85 0.273c0.245 0.081 0.526 0.128 0.819 0.128s0.574-0.047 0.838-0.134l-0.019 0.005 0.852-0.275c0.426-0.142 0.917-0.224 1.427-0.224s1.001 0.082 1.46 0.233l-0.033-0.009 0.853 0.276c0.245 0.081 0.526 0.128 0.819 0.128s0.574-0.047 0.838-0.134l-0.019 0.005 0.853-0.275c0.426-0.142 0.917-0.223 1.427-0.223s1.001 0.082 1.46 0.233l-0.033-0.009 0.855 0.275c0.244 0.081 0.526 0.128 0.818 0.128s0.574-0.047 0.837-0.134l-0.019 0.005 1.118-0.359c0.082-0.027 0.177-0.043 0.276-0.043 0.4 0 0.739 0.26 0.858 0.62l0.002 0.006 0.057 0.177c0.027 0.082 0.043 0.177 0.043 0.276 0 0.4-0.26 0.739-0.62 0.857l-0.006 0.002-1.394 0.448c-0.344 0.115-0.74 0.181-1.152 0.181h-0z"></path>
<path fill="#9ee2f8" style="fill: var(--color30, #9ee2f8)" d="M28.391 12.834c-0.411-0-0.807-0.067-1.177-0.189l0.027 0.008-1.407-0.453c-0.162-0.054-0.348-0.085-0.542-0.085s-0.38 0.031-0.554 0.089l0.012-0.004-1.128 0.363c-0.427 0.142-0.918 0.224-1.428 0.224s-1.001-0.082-1.461-0.233l0.033 0.009-0.852-0.274c-0.244-0.081-0.526-0.128-0.818-0.128s-0.574 0.047-0.837 0.134l0.019-0.005-0.853 0.274c-0.427 0.142-0.918 0.224-1.428 0.224s-1.002-0.082-1.461-0.233l0.033 0.009-0.85-0.273c-0.245-0.081-0.526-0.128-0.819-0.128s-0.574 0.047-0.838 0.134l0.019-0.005-0.851 0.274c-0.427 0.142-0.918 0.224-1.428 0.224s-1.001-0.082-1.461-0.233l0.033 0.009-0.851-0.274c-0.245-0.081-0.526-0.128-0.819-0.128s-0.574 0.047-0.838 0.134l0.019-0.005-1.127 0.362c-0.335 0.112-0.721 0.178-1.122 0.181h-0.002c-0 0-0 0-0 0-0.498 0-0.902-0.404-0.902-0.902 0-0.099 0.016-0.195 0.046-0.284l-0.002 0.006 0.060-0.188c0.112-0.354 0.431-0.609 0.811-0.624l0.002-0c0.18-0.005 0.351-0.036 0.513-0.089l-0.013 0.004 1.127-0.362c0.426-0.142 0.917-0.224 1.428-0.224s1.001 0.082 1.461 0.233l-0.033-0.009 0.851 0.274c0.245 0.081 0.526 0.128 0.819 0.128s0.574-0.047 0.838-0.134l-0.019 0.005 0.851-0.274c0.427-0.142 0.918-0.224 1.428-0.224s1.001 0.082 1.461 0.233l-0.033-0.009 0.85 0.273c0.245 0.081 0.526 0.128 0.819 0.128s0.574-0.047 0.838-0.134l-0.019 0.005 0.852-0.274c0.426-0.142 0.917-0.224 1.427-0.224s1.001 0.082 1.46 0.233l-0.033-0.009 0.853 0.275c0.244 0.081 0.526 0.128 0.818 0.128s0.574-0.047 0.837-0.134l-0.019 0.005 0.852-0.274c0.426-0.142 0.917-0.224 1.427-0.224s1.001 0.082 1.46 0.233l-0.033-0.009 1.13 0.363c0.149 0.050 0.32 0.080 0.498 0.085l0.002 0c0.382 0.016 0.701 0.271 0.811 0.619l0.002 0.006 0.065 0.201c0.028 0.083 0.045 0.179 0.045 0.279 0 0.483-0.386 0.877-0.867 0.888l-0.001 0z"></path>
<path fill="#beebfa" style="fill: var(--color29, #beebfa)" d="M28.391 17.332c-0.411-0-0.807-0.067-1.177-0.189l0.027 0.008-1.13-0.363c-0.244-0.081-0.526-0.128-0.818-0.128s-0.574 0.047-0.837 0.134l0.019-0.005-0.854 0.275c-0.426 0.142-0.917 0.224-1.427 0.224s-1.001-0.082-1.46-0.233l0.033 0.009-0.853-0.275c-0.244-0.081-0.526-0.128-0.818-0.128s-0.574 0.047-0.837 0.134l0.019-0.005-1.128 0.363c-0.344 0.115-0.74 0.182-1.152 0.182s-0.808-0.067-1.178-0.189l0.026 0.008-1.126-0.362c-0.245-0.081-0.526-0.128-0.819-0.128s-0.574 0.047-0.838 0.134l0.019-0.005-0.851 0.273c-0.427 0.142-0.918 0.224-1.428 0.224s-1.001-0.082-1.461-0.233l0.033 0.009-0.85-0.273c-0.244-0.081-0.526-0.128-0.818-0.128s-0.574 0.047-0.837 0.134l0.019-0.005-0.852 0.274c-0.426 0.142-0.917 0.224-1.427 0.224s-1.001-0.082-1.46-0.233l0.033 0.009-1.118-0.359c-0.366-0.12-0.626-0.459-0.626-0.859 0-0.099 0.016-0.194 0.045-0.282l-0.002 0.006 0.057-0.177c0.12-0.366 0.459-0.626 0.859-0.626 0.099 0 0.194 0.016 0.283 0.045l-0.006-0.002 1.116 0.358c0.244 0.081 0.526 0.128 0.818 0.128s0.574-0.047 0.837-0.134l-0.019 0.005 0.852-0.274c0.426-0.142 0.917-0.224 1.427-0.224s1.001 0.082 1.46 0.233l-0.033-0.009 0.851 0.274c0.245 0.081 0.526 0.128 0.819 0.128s0.574-0.047 0.838-0.134l-0.019 0.005 0.851-0.274c0.427-0.142 0.918-0.224 1.428-0.224s1.001 0.082 1.461 0.233l-0.033-0.009 0.85 0.273c0.245 0.081 0.526 0.128 0.819 0.128s0.574-0.047 0.838-0.134l-0.019 0.005 0.852-0.274c0.426-0.142 0.917-0.224 1.427-0.224s1.001 0.082 1.46 0.233l-0.033-0.009 0.853 0.275c0.244 0.081 0.526 0.128 0.818 0.128s0.574-0.047 0.837-0.134l-0.019 0.005 0.852-0.274c0.426-0.142 0.917-0.224 1.427-0.224s1.001 0.082 1.46 0.233l-0.033-0.009 0.854 0.275c0.244 0.081 0.526 0.128 0.818 0.128s0.574-0.047 0.837-0.134l-0.019 0.005 1.118-0.359c0.082-0.027 0.177-0.043 0.276-0.043 0.4 0 0.739 0.26 0.857 0.62l0.002 0.006 0.057 0.177c0.027 0.082 0.043 0.177 0.043 0.276 0 0.4-0.26 0.739-0.62 0.857l-0.006 0.002-1.394 0.446c-0.344 0.115-0.74 0.181-1.151 0.182h-0z"></path>
<path fill="#9ee2f8" style="fill: var(--color30, #9ee2f8)" d="M28.391 21.829c-0.411-0-0.807-0.067-1.177-0.189l0.027 0.008-1.131-0.363c-0.244-0.081-0.526-0.128-0.818-0.128s-0.574 0.047-0.837 0.134l0.019-0.005-0.852 0.274c-0.426 0.142-0.917 0.224-1.427 0.224s-1.001-0.082-1.46-0.233l0.033 0.009-0.853-0.275c-0.244-0.081-0.526-0.128-0.818-0.128s-0.574 0.047-0.837 0.134l0.019-0.005-0.852 0.275c-0.427 0.142-0.918 0.224-1.428 0.224s-1.001-0.082-1.461-0.233l0.033 0.009-0.85-0.273c-0.245-0.081-0.526-0.128-0.819-0.128s-0.574 0.047-0.838 0.134l0.019-0.005-0.851 0.273c-0.427 0.142-0.918 0.224-1.428 0.224s-1.001-0.082-1.461-0.233l0.033 0.009-0.851-0.273c-0.245-0.081-0.526-0.128-0.819-0.128s-0.574 0.047-0.838 0.134l0.019-0.005-1.127 0.362c-0.335 0.112-0.721 0.178-1.122 0.181h-0.002c-0 0-0 0-0 0-0.498 0-0.902-0.404-0.902-0.902 0-0.099 0.016-0.194 0.045-0.283l-0.002 0.006 0.060-0.188c0.112-0.354 0.431-0.609 0.811-0.624l0.002-0c0.18-0.005 0.351-0.035 0.513-0.089l-0.013 0.004 1.127-0.362c0.427-0.142 0.918-0.224 1.428-0.224s1.001 0.082 1.461 0.233l-0.033-0.009 0.851 0.273c0.245 0.081 0.526 0.128 0.819 0.128s0.574-0.047 0.838-0.134l-0.019 0.005 0.851-0.273c0.427-0.142 0.918-0.224 1.428-0.224s1.001 0.082 1.461 0.233l-0.033-0.009 0.85 0.273c0.245 0.081 0.526 0.128 0.819 0.128s0.574-0.047 0.838-0.134l-0.019 0.005 0.85-0.273c0.427-0.142 0.918-0.224 1.428-0.224s1.001 0.082 1.461 0.233l-0.033-0.009 0.852 0.274c0.245 0.081 0.526 0.128 0.819 0.128s0.574-0.047 0.838-0.134l-0.019 0.005 0.852-0.273c0.426-0.142 0.917-0.224 1.427-0.224s1.001 0.082 1.46 0.233l-0.033-0.009 1.13 0.363c0.149 0.049 0.32 0.080 0.498 0.085l0.002 0c0.382 0.015 0.7 0.27 0.811 0.617l0.002 0.006 0.065 0.201c0.028 0.083 0.045 0.179 0.045 0.279 0 0.483-0.386 0.877-0.867 0.888l-0.001 0z"></path>
<path fill="#beebfa" style="fill: var(--color29, #beebfa)" d="M28.391 26.328c-0.411-0-0.807-0.067-1.177-0.189l0.027 0.008-1.13-0.363c-0.244-0.081-0.526-0.128-0.818-0.128s-0.574 0.047-0.837 0.134l0.019-0.005-0.853 0.275c-0.426 0.142-0.917 0.224-1.427 0.224s-1.001-0.082-1.46-0.233l0.033 0.009-0.853-0.275c-0.244-0.081-0.526-0.128-0.818-0.128s-0.574 0.047-0.837 0.134l0.019-0.005-1.128 0.362c-0.344 0.115-0.74 0.182-1.152 0.182s-0.808-0.067-1.178-0.189l0.026 0.008-1.127-0.362c-0.245-0.081-0.526-0.128-0.819-0.128s-0.574 0.047-0.838 0.134l0.019-0.005-0.851 0.273c-0.427 0.142-0.918 0.224-1.428 0.224s-1.001-0.082-1.461-0.233l0.033 0.009-0.85-0.273c-0.245-0.081-0.526-0.128-0.819-0.128s-0.574 0.047-0.838 0.134l0.019-0.005-0.851 0.273c-0.426 0.142-0.917 0.224-1.427 0.224s-1.001-0.082-1.46-0.233l0.033 0.009-1.116-0.358c-0.366-0.12-0.626-0.459-0.626-0.859 0-0.099 0.016-0.194 0.045-0.282l-0.002 0.006 0.057-0.177c0.12-0.366 0.459-0.626 0.859-0.626 0.099 0 0.194 0.016 0.282 0.045l-0.006-0.002 1.116 0.358c0.244 0.081 0.526 0.128 0.818 0.128s0.574-0.047 0.837-0.134l-0.019 0.005 0.852-0.274c0.426-0.142 0.917-0.224 1.427-0.224s1.001 0.082 1.46 0.233l-0.033-0.009 0.851 0.273c0.245 0.081 0.526 0.128 0.819 0.128s0.574-0.047 0.838-0.134l-0.019 0.005 0.851-0.273c0.427-0.142 0.918-0.224 1.428-0.224s1.001 0.082 1.461 0.233l-0.033-0.009 0.85 0.273c0.245 0.081 0.526 0.128 0.819 0.128s0.574-0.047 0.838-0.134l-0.019 0.005 0.852-0.275c0.426-0.142 0.917-0.224 1.427-0.224s1.001 0.082 1.46 0.233l-0.033-0.009 0.852 0.275c0.245 0.081 0.526 0.128 0.819 0.128s0.574-0.047 0.838-0.134l-0.019 0.005 0.853-0.275c0.426-0.142 0.917-0.224 1.427-0.224s1.001 0.082 1.46 0.233l-0.033-0.009 0.855 0.275c0.244 0.081 0.526 0.128 0.818 0.128s0.574-0.047 0.837-0.134l-0.019 0.005 1.118-0.359c0.082-0.027 0.177-0.043 0.276-0.043 0.4 0 0.739 0.26 0.858 0.62l0.002 0.006 0.057 0.177c0.027 0.082 0.043 0.177 0.043 0.276 0 0.4-0.26 0.739-0.62 0.857l-0.006 0.002-1.394 0.448c-0.344 0.115-0.741 0.182-1.152 0.182h-0z"></path>
</symbol>
</defs>
</svg>
